<?xml version="1.0" encoding="UTF-8"?>
<!DOCTYPE svg PUBLIC "-//W3C//DTD SVG 1.1//EN" "http://www.w3.org/Graphics/SVG/1.1/DTD/svg11.dtd">
<svg xmlns="http://www.w3.org/2000/svg" version="1.1" width="483px" height="490px" style="shape-rendering:geometricPrecision; text-rendering:geometricPrecision; image-rendering:optimizeQuality; fill-rule:evenodd; clip-rule:evenodd" xmlns:xlink="http://www.w3.org/1999/xlink">
<g><path style="opacity:0.004" fill="#feff00" d="M 17.5,10.5 C 18.8333,11.1667 18.8333,11.1667 17.5,10.5 Z"/></g>
<g><path style="opacity:1" fill="#222605" d="M 394.5,94.5 C 394.369,93.6236 394.702,92.9569 395.5,92.5C 398.36,91.8202 400.86,90.4869 403,88.5C 403.29,90.0441 403.956,91.3774 405,92.5C 406.119,82.9719 405.286,73.6385 402.5,64.5C 400.855,63.3037 399.189,62.3037 397.5,61.5C 399.989,61.7022 402.323,61.2022 404.5,60C 408.643,55.7673 412.977,51.7673 417.5,48C 409.527,45.3422 401.527,42.6756 393.5,40C 384.323,34.6141 383.323,27.9475 390.5,20C 393.738,18.6323 397.072,18.2989 400.5,19C 412.125,22.9304 423.791,26.7637 435.5,30.5C 436.938,30.2811 438.271,29.7811 439.5,29C 443.94,23.958 448.94,19.6247 454.5,16C 464.512,14.6795 468.012,18.8462 465,28.5C 460.072,32.7162 455.239,37.0495 450.5,41.5C 450.167,42.6667 449.833,43.8333 449.5,45C 451.537,59.4531 452.703,73.9531 453,88.5C 448.211,97.095 441.878,98.4284 434,92.5C 433.333,91.1667 432.667,89.8333 432,88.5C 430.965,79.4789 429.798,70.4789 428.5,61.5C 423.539,65.1256 418.872,69.1256 414.5,73.5C 413.993,79.4681 413.827,85.4681 414,91.5C 411.103,96.1549 406.937,97.6549 401.5,96C 400.333,94.8333 399.167,93.6667 398,92.5C 397.184,93.8228 396.017,94.4894 394.5,94.5 Z"/></g>
<g><path style="opacity:0.004" fill="#feff00" d="M 464.5,36.5 C 465.833,37.1667 465.833,37.1667 464.5,36.5 Z"/></g>
<g><path style="opacity:0.004" fill="#feff00" d="M 473.5,48.5 C 474.833,49.1667 474.833,49.1667 473.5,48.5 Z"/></g>
<g><path style="opacity:0.004" fill="#feff00" d="M 257.5,54.5 C 258.833,55.1667 258.833,55.1667 257.5,54.5 Z"/></g>
<g><path style="opacity:0.004" fill="#feff00" d="M 116.5,56.5 C 117.833,57.1667 117.833,57.1667 116.5,56.5 Z"/></g>
<g><path style="opacity:0.004" fill="#feff00" d="M 149.5,65.5 C 150.833,66.1667 150.833,66.1667 149.5,65.5 Z"/></g>
<g><path style="opacity:0.004" fill="#feff00" d="M 158.5,71.5 C 159.833,72.1667 159.833,72.1667 158.5,71.5 Z"/></g>
<g><path style="opacity:0.004" fill="#feff00" d="M 248.5,72.5 C 249.833,73.1667 249.833,73.1667 248.5,72.5 Z"/></g>
<g><path style="opacity:0.004" fill="#feff00" d="M 77.5,85.5 C 78.8333,86.1667 78.8333,86.1667 77.5,85.5 Z"/></g>
<g><path style="opacity:0.192" fill="#564300" d="M 365.5,88.5 C 364.833,88.5 364.167,88.5 363.5,88.5C 274.792,88.1719 186.126,88.5052 97.5,89.5C 97.1667,89.5 96.8333,89.5 96.5,89.5C 96.9175,88.7784 97.5842,88.2784 98.5,88C 187.668,87.1676 276.668,87.3343 365.5,88.5 Z"/></g>
<g><path style="opacity:0.823" fill="#110a00" d="M 363.5,88.5 C 275.598,89.1692 187.598,89.8359 99.5,90.5C 97.1625,92.0107 96.4958,91.6773 97.5,89.5C 186.126,88.5052 274.792,88.1719 363.5,88.5 Z"/></g>
<g><path style="opacity:1" fill="#202504" d="M 397.5,61.5 C 399.189,62.3037 400.855,63.3037 402.5,64.5C 405.286,73.6385 406.119,82.9719 405,92.5C 403.956,91.3774 403.29,90.0441 403,88.5C 400.86,90.4869 398.36,91.8202 395.5,92.5C 394.702,92.9569 394.369,93.6236 394.5,94.5C 393.167,96.5 391.5,98.1667 389.5,99.5C 387.632,98.2431 385.965,98.5764 384.5,100.5C 383.506,96.5189 382.506,96.5189 381.5,100.5C 382.645,101.891 382.645,103.224 381.5,104.5C 380.914,104.291 380.414,103.957 380,103.5C 379.798,105.256 379.298,106.922 378.5,108.5C 376.958,107.253 375.458,107.253 374,108.5C 371.925,111.834 371.091,115.501 371.5,119.5C 370.005,127.442 369.505,135.442 370,143.5C 369.782,140.574 369.282,137.74 368.5,135C 368.833,134.667 369.167,134.333 369.5,134C 368.333,132.167 367.167,130.333 366,128.5C 365.863,133.322 365.696,138.322 365.5,143.5C 364.178,143.33 363.011,143.663 362,144.5C 361.804,152.34 360.971,160.007 359.5,167.5C 359.386,170.364 359.886,173.03 361,175.5C 361.833,198.174 361.666,220.841 360.5,243.5C 359.719,242.271 359.219,240.938 359,239.5C 358.505,241.473 358.338,243.473 358.5,245.5C 355.105,247.146 351.939,246.813 349,244.5C 348.691,245.766 348.191,246.933 347.5,248C 348.744,248.456 349.577,247.956 350,246.5C 351.057,248.219 351.89,250.053 352.5,252C 351.975,252.692 351.308,253.192 350.5,253.5C 349.833,252.167 349.167,250.833 348.5,249.5C 346.271,250.577 343.937,251.244 341.5,251.5C 341.737,248.788 341.737,246.288 341.5,244C 333.833,243.333 326.167,243.333 318.5,244C 319.804,246.478 318.97,247.978 316,248.5C 313.138,247.972 310.304,247.305 307.5,246.5C 308.509,244.815 308.009,243.482 306,242.5C 302.609,244.838 298.776,246.171 294.5,246.5C 293.147,247.524 292.48,248.857 292.5,250.5C 294.484,250.617 296.15,249.95 297.5,248.5C 302.405,250.302 307.405,251.802 312.5,253C 308.577,253.793 304.744,253.626 301,252.5C 297.936,254.451 294.769,254.784 291.5,253.5C 289.392,253.86 287.392,254.527 285.5,255.5C 284.283,253.607 282.283,252.274 279.5,251.5C 277.89,252.552 276.223,252.552 274.5,251.5C 271.934,252.368 269.434,253.368 267,254.5C 266.586,254.043 266.086,253.709 265.5,253.5C 263.703,255.131 262.536,257.131 262,259.5C 261.275,258.941 260.442,258.608 259.5,258.5C 253.027,261.235 247.027,264.735 241.5,269C 244.494,271.325 247.494,273.659 250.5,276C 250.043,276.414 249.709,276.914 249.5,277.5C 252.52,280.355 255.687,283.021 259,285.5C 259.492,286.549 259.326,287.549 258.5,288.5C 259.522,289.354 260.355,290.354 261,291.5C 261.718,290.549 262.551,290.383 263.5,291C 262.3,292.952 262.8,294.452 265,295.5C 265.492,294.451 265.326,293.451 264.5,292.5C 264.97,291.537 265.637,291.537 266.5,292.5C 268.794,295.37 270.128,298.703 270.5,302.5C 268.366,309.672 267.199,317.005 267,324.5C 265.503,329.168 262.67,332.834 258.5,335.5C 258.833,336.167 259.167,336.833 259.5,337.5C 255.534,342.966 252.701,348.966 251,355.5C 250.253,352.147 250.753,348.98 252.5,346C 251.258,344.349 250.424,342.515 250,340.5C 249.303,342.584 248.136,344.251 246.5,345.5C 249.528,337.779 253.361,330.446 258,323.5C 264.419,310.32 262.252,298.986 251.5,289.5C 251.416,287.209 251.416,284.875 251.5,282.5C 246.238,279.698 241.738,280.698 238,285.5C 237.228,285.355 236.561,285.022 236,284.5C 234.64,286.504 232.807,287.337 230.5,287C 234.597,285.676 235.264,283.51 232.5,280.5C 229.308,283.242 225.642,285.242 221.5,286.5C 223.184,287.854 223.684,289.521 223,291.5C 221.989,290.663 220.822,290.33 219.5,290.5C 219.993,292.806 220.326,295.139 220.5,297.5C 218.857,297.52 217.524,296.853 216.5,295.5C 215.268,296.145 213.935,296.311 212.5,296C 213.24,297.785 213.907,299.618 214.5,301.5C 212.389,302.848 210.555,302.515 209,300.5C 207.705,304.962 204.872,307.962 200.5,309.5C 223.827,272.676 256.827,250.009 299.5,241.5C 311.441,239.927 323.441,239.26 335.5,239.5C 340.658,240.458 345.991,241.125 351.5,241.5C 351.833,206.16 351.5,170.827 350.5,135.5C 349.893,135.624 349.56,135.957 349.5,136.5C 348.969,135.205 347.636,134.538 345.5,134.5C 345.321,132.394 344.321,130.728 342.5,129.5C 341.053,131.166 339.719,132.999 338.5,135C 339.291,136.101 339.291,136.934 338.5,137.5C 337.833,133.833 337.167,130.167 336.5,126.5C 335.5,125.5 334.5,124.5 333.5,123.5C 333.709,122.914 334.043,122.414 334.5,122C 332.226,121.53 330.226,120.53 328.5,119C 329.416,118.722 330.082,118.222 330.5,117.5C 334.455,114.87 338.122,111.703 341.5,108C 339.099,107.195 339.266,106.362 342,105.5C 342.667,104.833 342.667,104.167 342,103.5C 339.506,105.901 337.173,105.901 335,103.5C 333.247,104.627 331.413,105.627 329.5,106.5C 259.677,106.658 189.677,106.491 119.5,106C 118.5,102.667 117.5,102.667 116.5,106C 115.207,106.49 113.873,106.657 112.5,106.5C 112.687,104.436 113.187,102.436 114,100.5C 114.667,103.167 115.333,103.167 116,100.5C 120.374,100.813 124.707,100.813 129,100.5C 129.667,103.167 130.333,103.167 131,100.5C 131.667,103.167 132.333,103.167 133,100.5C 133.667,103.167 134.333,103.167 135,100.5C 135.667,103.167 136.333,103.167 137,100.5C 137.667,103.167 138.333,103.167 139,100.5C 139.667,103.167 140.333,103.167 141,100.5C 141.667,103.167 142.333,103.167 143,100.5C 143.667,103.167 144.333,103.167 145,100.5C 145.667,103.167 146.333,103.167 147,100.5C 147.667,103.167 148.333,103.167 149,100.5C 149.667,103.167 150.333,103.167 151,100.5C 151.667,103.167 152.333,103.167 153,100.5C 153.667,103.167 154.333,103.167 155,100.5C 155.667,103.167 156.333,103.167 157,100.5C 157.667,103.167 158.333,103.167 159,100.5C 159.667,103.167 160.333,103.167 161,100.5C 161.667,103.167 162.333,103.167 163,100.5C 163.667,103.167 164.333,103.167 165,100.5C 165.667,103.167 166.333,103.167 167,100.5C 167.667,103.167 168.333,103.167 169,100.5C 169.667,103.167 170.333,103.167 171,100.5C 171.667,103.167 172.333,103.167 173,100.5C 173.667,103.167 174.333,103.167 175,100.5C 175.667,103.167 176.333,103.167 177,100.5C 177.667,103.167 178.333,103.167 179,100.5C 179.667,103.167 180.333,103.167 181,100.5C 181.667,103.167 182.333,103.167 183,100.5C 183.667,103.167 184.333,103.167 185,100.5C 185.667,103.167 186.333,103.167 187,100.5C 187.667,103.167 188.333,103.167 189,100.5C 189.667,103.167 190.333,103.167 191,100.5C 191.667,103.167 192.333,103.167 193,100.5C 193.667,103.167 194.333,103.167 195,100.5C 195.667,103.167 196.333,103.167 197,100.5C 197.667,103.167 198.333,103.167 199,100.5C 199.667,103.167 200.333,103.167 201,100.5C 201.667,103.167 202.333,103.167 203,100.5C 203.667,103.167 204.333,103.167 205,100.5C 205.667,103.167 206.333,103.167 207,100.5C 207.667,103.167 208.333,103.167 209,100.5C 209.667,103.167 210.333,103.167 211,100.5C 211.667,103.167 212.333,103.167 213,100.5C 213.667,103.167 214.333,103.167 215,100.5C 215.667,103.167 216.333,103.167 217,100.5C 217.667,103.167 218.333,103.167 219,100.5C 219.667,103.167 220.333,103.167 221,100.5C 221.667,103.167 222.333,103.167 223,100.5C 223.667,103.167 224.333,103.167 225,100.5C 225.667,103.167 226.333,103.167 227,100.5C 227.667,103.167 228.333,103.167 229,100.5C 229.667,103.167 230.333,103.167 231,100.5C 231.667,103.167 232.333,103.167 233,100.5C 233.667,103.167 234.333,103.167 235,100.5C 235.667,103.167 236.333,103.167 237,100.5C 237.667,103.167 238.333,103.167 239,100.5C 239.667,103.167 240.333,103.167 241,100.5C 241.667,103.167 242.333,103.167 243,100.5C 243.667,103.167 244.333,103.167 245,100.5C 245.667,103.167 246.333,103.167 247,100.5C 247.667,103.167 248.333,103.167 249,100.5C 249.667,103.167 250.333,103.167 251,100.5C 251.667,103.167 252.333,103.167 253,100.5C 253.667,103.167 254.333,103.167 255,100.5C 255.667,103.167 256.333,103.167 257,100.5C 257.667,103.167 258.333,103.167 259,100.5C 259.667,103.167 260.333,103.167 261,100.5C 261.667,103.167 262.333,103.167 263,100.5C 263.667,103.167 264.333,103.167 265,100.5C 265.667,103.167 266.333,103.167 267,100.5C 267.667,103.167 268.333,103.167 269,100.5C 269.667,103.167 270.333,103.167 271,100.5C 271.667,103.167 272.333,103.167 273,100.5C 273.667,103.167 274.333,103.167 275,100.5C 275.667,103.167 276.333,103.167 277,100.5C 277.667,103.167 278.333,103.167 279,100.5C 279.667,103.167 280.333,103.167 281,100.5C 281.667,103.167 282.333,103.167 283,100.5C 283.667,103.167 284.333,103.167 285,100.5C 285.667,103.167 286.333,103.167 287,100.5C 287.667,103.167 288.333,103.167 289,100.5C 289.667,103.167 290.333,103.167 291,100.5C 291.667,103.167 292.333,103.167 293,100.5C 293.667,103.167 294.333,103.167 295,100.5C 295.667,103.167 296.333,103.167 297,100.5C 297.667,103.167 298.333,103.167 299,100.5C 299.667,103.167 300.333,103.167 301,100.5C 301.667,103.167 302.333,103.167 303,100.5C 303.667,103.167 304.333,103.167 305,100.5C 305.667,103.167 306.333,103.167 307,100.5C 307.667,103.167 308.333,103.167 309,100.5C 309.667,103.167 310.333,103.167 311,100.5C 311.667,103.167 312.333,103.167 313,100.5C 313.667,103.167 314.333,103.167 315,100.5C 315.667,103.167 316.333,103.167 317,100.5C 317.984,102.795 318.817,102.461 319.5,99.5C 318.675,98.6143 317.675,98.281 316.5,98.5C 316.307,94.551 315.807,94.551 315,98.5C 314.333,94.5 313.667,94.5 313,98.5C 312.333,94.5 311.667,94.5 311,98.5C 310.333,94.5 309.667,94.5 309,98.5C 308.333,94.5 307.667,94.5 307,98.5C 306.333,94.5 305.667,94.5 305,98.5C 304.333,95.8333 303.667,95.8333 303,98.5C 302.333,95.8333 301.667,95.8333 301,98.5C 300.333,95.8333 299.667,95.8333 299,98.5C 298.333,95.8333 297.667,95.8333 297,98.5C 296.333,95.8333 295.667,95.8333 295,98.5C 294.333,95.8333 293.667,95.8333 293,98.5C 292.333,95.8333 291.667,95.8333 291,98.5C 290.333,95.8333 289.667,95.8333 289,98.5C 288.333,95.8333 287.667,95.8333 287,98.5C 286.333,95.8333 285.667,95.8333 285,98.5C 284.333,95.8333 283.667,95.8333 283,98.5C 282.333,95.8333 281.667,95.8333 281,98.5C 280.333,95.8333 279.667,95.8333 279,98.5C 278.333,95.8333 277.667,95.8333 277,98.5C 276.333,95.8333 275.667,95.8333 275,98.5C 274.333,95.8333 273.667,95.8333 273,98.5C 272.333,95.8333 271.667,95.8333 271,98.5C 270.333,95.8333 269.667,95.8333 269,98.5C 268.333,95.8333 267.667,95.8333 267,98.5C 266.333,95.8333 265.667,95.8333 265,98.5C 264.333,95.8333 263.667,95.8333 263,98.5C 262.333,95.8333 261.667,95.8333 261,98.5C 260.333,95.8333 259.667,95.8333 259,98.5C 258.333,95.8333 257.667,95.8333 257,98.5C 256.333,95.8333 255.667,95.8333 255,98.5C 254.333,95.8333 253.667,95.8333 253,98.5C 252.333,95.8333 251.667,95.8333 251,98.5C 250.333,95.8333 249.667,95.8333 249,98.5C 248.333,95.8333 247.667,95.8333 247,98.5C 246.333,95.8333 245.667,95.8333 245,98.5C 244.333,95.8333 243.667,95.8333 243,98.5C 242.333,95.8333 241.667,95.8333 241,98.5C 240.333,95.8333 239.667,95.8333 239,98.5C 238.333,95.8333 237.667,95.8333 237,98.5C 236.333,95.8333 235.667,95.8333 235,98.5C 234.333,95.8333 233.667,95.8333 233,98.5C 232.333,95.8333 231.667,95.8333 231,98.5C 230.333,95.8333 229.667,95.8333 229,98.5C 228.333,95.8333 227.667,95.8333 227,98.5C 226.333,95.8333 225.667,95.8333 225,98.5C 224.333,95.8333 223.667,95.8333 223,98.5C 222.333,95.8333 221.667,95.8333 221,98.5C 220.333,95.8333 219.667,95.8333 219,98.5C 218.333,95.8333 217.667,95.8333 217,98.5C 216.333,95.8333 215.667,95.8333 215,98.5C 214.333,95.8333 213.667,95.8333 213,98.5C 212.333,95.8333 211.667,95.8333 211,98.5C 210.333,95.8333 209.667,95.8333 209,98.5C 208.333,95.8333 207.667,95.8333 207,98.5C 206.333,95.8333 205.667,95.8333 205,98.5C 204.333,95.8333 203.667,95.8333 203,98.5C 202.333,95.8333 201.667,95.8333 201,98.5C 200.333,95.8333 199.667,95.8333 199,98.5C 198.333,95.8333 197.667,95.8333 197,98.5C 196.333,95.8333 195.667,95.8333 195,98.5C 194.333,95.8333 193.667,95.8333 193,98.5C 192.333,95.8333 191.667,95.8333 191,98.5C 190.333,95.8333 189.667,95.8333 189,98.5C 188.333,95.8333 187.667,95.8333 187,98.5C 186.333,95.8333 185.667,95.8333 185,98.5C 184.333,95.8333 183.667,95.8333 183,98.5C 182.333,95.8333 181.667,95.8333 181,98.5C 180.333,95.8333 179.667,95.8333 179,98.5C 178.333,95.8333 177.667,95.8333 177,98.5C 176.333,95.8333 175.667,95.8333 175,98.5C 174.333,95.8333 173.667,95.8333 173,98.5C 172.333,95.8333 171.667,95.8333 171,98.5C 170.333,95.8333 169.667,95.8333 169,98.5C 168.333,95.8333 167.667,95.8333 167,98.5C 166.333,95.8333 165.667,95.8333 165,98.5C 164.333,95.8333 163.667,95.8333 163,98.5C 162.333,95.8333 161.667,95.8333 161,98.5C 160.333,95.8333 159.667,95.8333 159,98.5C 158.333,95.8333 157.667,95.8333 157,98.5C 156.333,95.8333 155.667,95.8333 155,98.5C 154.333,95.8333 153.667,95.8333 153,98.5C 152.333,95.8333 151.667,95.8333 151,98.5C 150.333,95.8333 149.667,95.8333 149,98.5C 148.333,95.8333 147.667,95.8333 147,98.5C 146.333,95.8333 145.667,95.8333 145,98.5C 144.333,95.8333 143.667,95.8333 143,98.5C 142.333,95.8333 141.667,95.8333 141,98.5C 140.333,95.8333 139.667,95.8333 139,98.5C 138.333,95.8333 137.667,95.8333 137,98.5C 136.333,95.8333 135.667,95.8333 135,98.5C 134.333,95.8333 133.667,95.8333 133,98.5C 132.333,95.8333 131.667,95.8333 131,98.5C 130.333,95.8333 129.667,95.8333 129,98.5C 128.517,97.552 128.351,96.552 128.5,95.5C 126.856,95.2865 125.356,95.6198 124,96.5C 119.993,95.0589 115.826,94.2255 111.5,94C 116.889,93.4932 122.223,92.6598 127.5,91.5C 117.98,90.6347 108.647,90.3014 99.5,90.5C 187.598,89.8359 275.598,89.1692 363.5,88.5C 364.167,88.5 364.833,88.5 365.5,88.5C 372.692,85.7222 378.692,81.2222 383.5,75C 377.691,70.6686 377.024,65.6686 381.5,60C 387.029,58.0025 392.362,58.5025 397.5,61.5 Z"/></g>
<g><path style="opacity:0.004" fill="#feff00" d="M 413.5,108.5 C 414.833,109.167 414.833,109.167 413.5,108.5 Z"/></g>
<g><path style="opacity:1" fill="#86b7b6" d="M 112.5,109.5 C 187.002,109.167 261.335,109.501 335.5,110.5C 320.202,120.476 305.202,130.809 290.5,141.5C 288.147,142.34 286.147,143.674 284.5,145.5C 274.34,152.747 264.006,159.747 253.5,166.5C 252.399,165.402 251.066,165.235 249.5,166C 248.167,168 246.5,169.667 244.5,171C 238.116,171.206 231.783,171.706 225.5,172.5C 223.47,170.393 221.303,168.393 219,166.5C 218.118,163.211 217.452,159.877 217,156.5C 212.214,150.198 206.048,146.031 198.5,144C 197.257,142.846 196.257,141.512 195.5,140C 191.082,139.792 186.749,139.126 182.5,138C 175.664,137.039 168.997,137.705 162.5,140C 159.015,143.185 155.182,146.018 151,148.5C 149.878,150.42 149.044,152.42 148.5,154.5C 147.19,156.148 145.857,157.814 144.5,159.5C 136.599,148.84 125.932,143.84 112.5,144.5C 112.5,132.833 112.5,121.167 112.5,109.5 Z"/></g>
<g><path style="opacity:1" fill="#212505" d="M 330.5,117.5 C 330.082,118.222 329.416,118.722 328.5,119C 330.226,120.53 332.226,121.53 334.5,122C 334.043,122.414 333.709,122.914 333.5,123.5C 334.5,124.5 335.5,125.5 336.5,126.5C 337.167,130.167 337.833,133.833 338.5,137.5C 339.291,136.934 339.291,136.101 338.5,135C 339.719,132.999 341.053,131.166 342.5,129.5C 344.321,130.728 345.321,132.394 345.5,134.5C 347.636,134.538 348.969,135.205 349.5,136.5C 333.101,151.909 316.768,167.576 300.5,183.5C 281.843,199.824 263.843,216.824 246.5,234.5C 224.201,253.755 203.201,274.088 183.5,295.5C 179.588,294.256 177.588,291.589 177.5,287.5C 176.448,287.649 175.448,287.483 174.5,287C 175.46,285.581 176.293,284.081 177,282.5C 177.569,286.361 178.402,286.361 179.5,282.5C 180.425,283.641 181.259,283.641 182,282.5C 182.333,280.833 182.667,279.167 183,277.5C 183.92,277.07 184.753,276.736 185.5,276.5C 184.167,275.167 182.833,273.833 181.5,272.5C 182.517,269.972 183.684,269.972 185,272.5C 185.483,271.552 185.649,270.552 185.5,269.5C 184.5,269.5 183.5,269.5 182.5,269.5C 182.5,268.5 182.5,267.5 182.5,266.5C 185.529,263.141 188.529,259.808 191.5,256.5C 197.442,252.227 202.776,247.227 207.5,241.5C 225.167,224.833 242.833,208.167 260.5,191.5C 274.663,178.171 288.997,165.004 303.5,152C 286.327,162.617 269.66,174.284 253.5,187C 252.551,187.617 251.718,187.451 251,186.5C 250.59,187.901 250.09,189.234 249.5,190.5C 249.167,191.5 248.5,192.167 247.5,192.5C 233.769,201.047 221.103,211.047 209.5,222.5C 187.333,239.827 166.833,259.16 148,280.5C 134.152,296.527 123.652,314.527 116.5,334.5C 116.336,331.813 116.503,329.146 117,326.5C 119.407,323.8 120.24,320.8 119.5,317.5C 119.95,312.778 121.45,308.444 124,304.5C 124.915,305.328 125.581,306.328 126,307.5C 127.688,306.675 127.855,305.675 126.5,304.5C 127.148,301.387 128.148,298.22 129.5,295C 128.333,294.5 127.5,293.667 127,292.5C 125.35,293.891 124.85,295.391 125.5,297C 123.104,300.425 121.104,300.259 119.5,296.5C 120.363,295.274 120.363,293.94 119.5,292.5C 120.675,292.719 121.675,292.386 122.5,291.5C 126.75,285.053 131.917,279.386 138,274.5C 138.667,272.5 139.333,270.5 140,268.5C 140.833,269.5 141.667,270.5 142.5,271.5C 143.617,266.964 145.117,263.298 147,260.5C 148.897,258.601 151.064,257.101 153.5,256C 156.283,252.028 159.783,248.861 164,246.5C 165,246.833 166,247.167 167,247.5C 167.605,245.519 168.605,245.185 170,246.5C 171.667,243.833 173.333,241.167 175,238.5C 175.14,241.043 175.806,243.377 177,245.5C 178.6,244.134 180.433,243.134 182.5,242.5C 182.291,241.914 181.957,241.414 181.5,241C 182.759,240.077 184.092,239.243 185.5,238.5C 184.315,237.147 182.981,235.98 181.5,235C 182.815,233.605 182.481,232.605 180.5,232C 181.833,231 183.167,230 184.5,229C 184.167,228.667 183.833,228.333 183.5,228C 188.763,225.128 191.43,226.628 191.5,232.5C 192.5,232.5 193.5,232.5 194.5,232.5C 194.33,231.178 194.663,230.011 195.5,229C 194.643,228.311 193.977,227.478 193.5,226.5C 195.078,225.702 196.744,225.202 198.5,225C 197.833,224.667 197.167,224.333 196.5,224C 200.185,223.259 200.851,221.759 198.5,219.5C 200.042,219.306 201.375,218.139 202.5,216C 201.049,216.263 199.716,216.096 198.5,215.5C 199.833,214.167 201.167,212.833 202.5,211.5C 202.167,210.833 201.833,210.167 201.5,209.5C 203.223,207.132 203.89,204.466 203.5,201.5C 206.316,202.144 208.982,202.477 211.5,202.5C 212.386,201.675 212.719,200.675 212.5,199.5C 212.5,199.167 212.5,198.833 212.5,198.5C 217.339,194.499 222.339,190.666 227.5,187C 220.833,186.667 214.167,186.333 207.5,186C 206.667,185.167 205.833,184.333 205,183.5C 204.555,179.386 205.055,175.386 206.5,171.5C 206.298,168.361 205.631,165.361 204.5,162.5C 204.281,161.325 204.614,160.325 205.5,159.5C 205.149,161.203 205.816,162.87 207.5,164.5C 209.071,163.691 210.738,163.357 212.5,163.5C 212.657,164.873 212.49,166.207 212,167.5C 211.374,165.009 210.541,165.009 209.5,167.5C 208.416,172.526 207.583,177.526 207,182.5C 207.333,182.167 207.667,181.833 208,181.5C 208.772,182.849 209.939,183.682 211.5,184C 213.995,184.157 216.328,184.324 218.5,184.5C 221.683,183.81 224.183,182.144 226,179.5C 231.813,180.143 237.646,180.477 243.5,180.5C 243.5,181.5 243.5,182.5 243.5,183.5C 244.5,183.5 245.5,183.5 246.5,183.5C 246.693,179.551 247.193,179.551 248,183.5C 250.011,180.99 252.178,178.657 254.5,176.5C 252.905,175.232 250.905,175.232 248.5,176.5C 249.019,172.788 251.186,170.455 255,169.5C 255.667,170.167 256.333,170.833 257,171.5C 260.099,165.171 264.932,160.504 271.5,157.5C 272.451,158.326 273.451,158.492 274.5,158C 274.167,157.667 273.833,157.333 273.5,157C 275.805,153.237 278.805,151.071 282.5,150.5C 283.517,148.163 285.184,146.496 287.5,145.5C 286.767,144.913 285.767,144.913 284.5,145.5C 286.147,143.674 288.147,142.34 290.5,141.5C 293.771,140.204 297.105,138.871 300.5,137.5C 303.35,133.995 307.017,131.995 311.5,131.5C 311.662,129.176 312.828,127.509 315,126.5C 315.333,126.833 315.667,127.167 316,127.5C 320.172,123.154 325.005,119.82 330.5,117.5 Z M 257.5,185.5 C 258.873,185.343 260.207,185.51 261.5,186C 258.609,191.725 254.276,195.892 248.5,198.5C 246.893,198.363 245.559,197.696 244.5,196.5C 245.524,195.148 246.524,193.815 247.5,192.5C 248.5,192.167 249.167,191.5 249.5,190.5C 252.511,189.331 255.178,187.664 257.5,185.5 Z"/></g>
<g><path style="opacity:0.004" fill="#feff00" d="M 431.5,127.5 C 432.833,128.167 432.833,128.167 431.5,127.5 Z"/></g>
<g><path style="opacity:1" fill="#8bb2a7" d="M 253.5,166.5 C 250.149,169.848 246.482,172.848 242.5,175.5C 234.167,175.5 225.833,175.5 217.5,175.5C 217.665,172.15 217.498,168.817 217,165.5C 216.768,164.263 216.268,163.263 215.5,162.5C 209.776,150.787 200.443,143.62 187.5,141C 172.363,139.655 159.363,144.155 148.5,154.5C 149.044,152.42 149.878,150.42 151,148.5C 155.182,146.018 159.015,143.185 162.5,140C 168.997,137.705 175.664,137.039 182.5,138C 186.749,139.126 191.082,139.792 195.5,140C 196.257,141.512 197.257,142.846 198.5,144C 206.048,146.031 212.214,150.198 217,156.5C 217.452,159.877 218.118,163.211 219,166.5C 221.303,168.393 223.47,170.393 225.5,172.5C 231.783,171.706 238.116,171.206 244.5,171C 246.5,169.667 248.167,168 249.5,166C 251.066,165.235 252.399,165.402 253.5,166.5 Z"/></g>
<g><path style="opacity:1" fill="#ebece9" d="M 204.5,162.5 C 205.631,165.361 206.298,168.361 206.5,171.5C 205.055,175.386 204.555,179.386 205,183.5C 205.833,184.333 206.667,185.167 207.5,186C 214.167,186.333 220.833,186.667 227.5,187C 222.339,190.666 217.339,194.499 212.5,198.5C 161.331,198.832 110.331,198.499 59.5,197.5C 65.9474,193.774 72.6141,190.274 79.5,187C 80.3333,186.167 81.1667,185.333 82,184.5C 85.2666,162.796 97.7666,152.963 119.5,155C 130.667,156.833 137.167,163.333 139,174.5C 141.795,177.113 144.629,177.113 147.5,174.5C 159.131,151.758 176.464,145.925 199.5,157C 201.402,158.73 203.069,160.563 204.5,162.5 Z"/></g>
<g><path style="opacity:1" fill="#1e2509" d="M 96.5,89.5 C 96.8333,89.5 97.1667,89.5 97.5,89.5C 96.4958,91.6773 97.1625,92.0107 99.5,90.5C 108.647,90.3014 117.98,90.6347 127.5,91.5C 122.223,92.6598 116.889,93.4932 111.5,94C 115.826,94.2255 119.993,95.0589 124,96.5C 125.356,95.6198 126.856,95.2865 128.5,95.5C 128.351,96.552 128.517,97.552 129,98.5C 129.667,95.8333 130.333,95.8333 131,98.5C 131.667,95.8333 132.333,95.8333 133,98.5C 133.667,95.8333 134.333,95.8333 135,98.5C 135.667,95.8333 136.333,95.8333 137,98.5C 137.667,95.8333 138.333,95.8333 139,98.5C 139.667,95.8333 140.333,95.8333 141,98.5C 141.667,95.8333 142.333,95.8333 143,98.5C 143.667,95.8333 144.333,95.8333 145,98.5C 145.667,95.8333 146.333,95.8333 147,98.5C 147.667,95.8333 148.333,95.8333 149,98.5C 149.667,95.8333 150.333,95.8333 151,98.5C 151.667,95.8333 152.333,95.8333 153,98.5C 153.667,95.8333 154.333,95.8333 155,98.5C 155.667,95.8333 156.333,95.8333 157,98.5C 157.667,95.8333 158.333,95.8333 159,98.5C 159.667,95.8333 160.333,95.8333 161,98.5C 161.667,95.8333 162.333,95.8333 163,98.5C 163.667,95.8333 164.333,95.8333 165,98.5C 165.667,95.8333 166.333,95.8333 167,98.5C 167.667,95.8333 168.333,95.8333 169,98.5C 169.667,95.8333 170.333,95.8333 171,98.5C 171.667,95.8333 172.333,95.8333 173,98.5C 173.667,95.8333 174.333,95.8333 175,98.5C 175.667,95.8333 176.333,95.8333 177,98.5C 177.667,95.8333 178.333,95.8333 179,98.5C 179.667,95.8333 180.333,95.8333 181,98.5C 181.667,95.8333 182.333,95.8333 183,98.5C 183.667,95.8333 184.333,95.8333 185,98.5C 185.667,95.8333 186.333,95.8333 187,98.5C 187.667,95.8333 188.333,95.8333 189,98.5C 189.667,95.8333 190.333,95.8333 191,98.5C 191.667,95.8333 192.333,95.8333 193,98.5C 193.667,95.8333 194.333,95.8333 195,98.5C 195.667,95.8333 196.333,95.8333 197,98.5C 197.667,95.8333 198.333,95.8333 199,98.5C 199.667,95.8333 200.333,95.8333 201,98.5C 201.667,95.8333 202.333,95.8333 203,98.5C 203.667,95.8333 204.333,95.8333 205,98.5C 205.667,95.8333 206.333,95.8333 207,98.5C 207.667,95.8333 208.333,95.8333 209,98.5C 209.667,95.8333 210.333,95.8333 211,98.5C 211.667,95.8333 212.333,95.8333 213,98.5C 213.667,95.8333 214.333,95.8333 215,98.5C 215.667,95.8333 216.333,95.8333 217,98.5C 217.667,95.8333 218.333,95.8333 219,98.5C 219.667,95.8333 220.333,95.8333 221,98.5C 221.667,95.8333 222.333,95.8333 223,98.5C 223.667,95.8333 224.333,95.8333 225,98.5C 225.667,95.8333 226.333,95.8333 227,98.5C 227.667,95.8333 228.333,95.8333 229,98.5C 229.667,95.8333 230.333,95.8333 231,98.5C 231.667,95.8333 232.333,95.8333 233,98.5C 233.667,95.8333 234.333,95.8333 235,98.5C 235.667,95.8333 236.333,95.8333 237,98.5C 237.667,95.8333 238.333,95.8333 239,98.5C 239.667,95.8333 240.333,95.8333 241,98.5C 241.667,95.8333 242.333,95.8333 243,98.5C 243.667,95.8333 244.333,95.8333 245,98.5C 245.667,95.8333 246.333,95.8333 247,98.5C 247.667,95.8333 248.333,95.8333 249,98.5C 249.667,95.8333 250.333,95.8333 251,98.5C 251.667,95.8333 252.333,95.8333 253,98.5C 253.667,95.8333 254.333,95.8333 255,98.5C 255.667,95.8333 256.333,95.8333 257,98.5C 257.667,95.8333 258.333,95.8333 259,98.5C 259.667,95.8333 260.333,95.8333 261,98.5C 261.667,95.8333 262.333,95.8333 263,98.5C 263.667,95.8333 264.333,95.8333 265,98.5C 265.667,95.8333 266.333,95.8333 267,98.5C 267.667,95.8333 268.333,95.8333 269,98.5C 269.667,95.8333 270.333,95.8333 271,98.5C 271.667,95.8333 272.333,95.8333 273,98.5C 273.667,95.8333 274.333,95.8333 275,98.5C 275.667,95.8333 276.333,95.8333 277,98.5C 277.667,95.8333 278.333,95.8333 279,98.5C 279.667,95.8333 280.333,95.8333 281,98.5C 281.667,95.8333 282.333,95.8333 283,98.5C 283.667,95.8333 284.333,95.8333 285,98.5C 285.667,95.8333 286.333,95.8333 287,98.5C 287.667,95.8333 288.333,95.8333 289,98.5C 289.667,95.8333 290.333,95.8333 291,98.5C 291.667,95.8333 292.333,95.8333 293,98.5C 293.667,95.8333 294.333,95.8333 295,98.5C 295.667,95.8333 296.333,95.8333 297,98.5C 297.667,95.8333 298.333,95.8333 299,98.5C 299.667,95.8333 300.333,95.8333 301,98.5C 301.667,95.8333 302.333,95.8333 303,98.5C 303.667,95.8333 304.333,95.8333 305,98.5C 305.667,94.5 306.333,94.5 307,98.5C 307.667,94.5 308.333,94.5 309,98.5C 309.667,94.5 310.333,94.5 311,98.5C 311.667,94.5 312.333,94.5 313,98.5C 313.667,94.5 314.333,94.5 315,98.5C 315.807,94.551 316.307,94.551 316.5,98.5C 317.675,98.281 318.675,98.6143 319.5,99.5C 318.817,102.461 317.984,102.795 317,100.5C 316.333,103.167 315.667,103.167 315,100.5C 314.333,103.167 313.667,103.167 313,100.5C 312.333,103.167 311.667,103.167 311,100.5C 310.333,103.167 309.667,103.167 309,100.5C 308.333,103.167 307.667,103.167 307,100.5C 306.333,103.167 305.667,103.167 305,100.5C 304.333,103.167 303.667,103.167 303,100.5C 302.333,103.167 301.667,103.167 301,100.5C 300.333,103.167 299.667,103.167 299,100.5C 298.333,103.167 297.667,103.167 297,100.5C 296.333,103.167 295.667,103.167 295,100.5C 294.333,103.167 293.667,103.167 293,100.5C 292.333,103.167 291.667,103.167 291,100.5C 290.333,103.167 289.667,103.167 289,100.5C 288.333,103.167 287.667,103.167 287,100.5C 286.333,103.167 285.667,103.167 285,100.5C 284.333,103.167 283.667,103.167 283,100.5C 282.333,103.167 281.667,103.167 281,100.5C 280.333,103.167 279.667,103.167 279,100.5C 278.333,103.167 277.667,103.167 277,100.5C 276.333,103.167 275.667,103.167 275,100.5C 274.333,103.167 273.667,103.167 273,100.5C 272.333,103.167 271.667,103.167 271,100.5C 270.333,103.167 269.667,103.167 269,100.5C 268.333,103.167 267.667,103.167 267,100.5C 266.333,103.167 265.667,103.167 265,100.5C 264.333,103.167 263.667,103.167 263,100.5C 262.333,103.167 261.667,103.167 261,100.5C 260.333,103.167 259.667,103.167 259,100.5C 258.333,103.167 257.667,103.167 257,100.5C 256.333,103.167 255.667,103.167 255,100.5C 254.333,103.167 253.667,103.167 253,100.5C 252.333,103.167 251.667,103.167 251,100.5C 250.333,103.167 249.667,103.167 249,100.5C 248.333,103.167 247.667,103.167 247,100.5C 246.333,103.167 245.667,103.167 245,100.5C 244.333,103.167 243.667,103.167 243,100.5C 242.333,103.167 241.667,103.167 241,100.5C 240.333,103.167 239.667,103.167 239,100.5C 238.333,103.167 237.667,103.167 237,100.5C 236.333,103.167 235.667,103.167 235,100.5C 234.333,103.167 233.667,103.167 233,100.5C 232.333,103.167 231.667,103.167 231,100.5C 230.333,103.167 229.667,103.167 229,100.5C 228.333,103.167 227.667,103.167 227,100.5C 226.333,103.167 225.667,103.167 225,100.5C 224.333,103.167 223.667,103.167 223,100.5C 222.333,103.167 221.667,103.167 221,100.5C 220.333,103.167 219.667,103.167 219,100.5C 218.333,103.167 217.667,103.167 217,100.5C 216.333,103.167 215.667,103.167 215,100.5C 214.333,103.167 213.667,103.167 213,100.5C 212.333,103.167 211.667,103.167 211,100.5C 210.333,103.167 209.667,103.167 209,100.5C 208.333,103.167 207.667,103.167 207,100.5C 206.333,103.167 205.667,103.167 205,100.5C 204.333,103.167 203.667,103.167 203,100.5C 202.333,103.167 201.667,103.167 201,100.5C 200.333,103.167 199.667,103.167 199,100.5C 198.333,103.167 197.667,103.167 197,100.5C 196.333,103.167 195.667,103.167 195,100.5C 194.333,103.167 193.667,103.167 193,100.5C 192.333,103.167 191.667,103.167 191,100.5C 190.333,103.167 189.667,103.167 189,100.5C 188.333,103.167 187.667,103.167 187,100.5C 186.333,103.167 185.667,103.167 185,100.5C 184.333,103.167 183.667,103.167 183,100.5C 182.333,103.167 181.667,103.167 181,100.5C 180.333,103.167 179.667,103.167 179,100.5C 178.333,103.167 177.667,103.167 177,100.5C 176.333,103.167 175.667,103.167 175,100.5C 174.333,103.167 173.667,103.167 173,100.5C 172.333,103.167 171.667,103.167 171,100.5C 170.333,103.167 169.667,103.167 169,100.5C 168.333,103.167 167.667,103.167 167,100.5C 166.333,103.167 165.667,103.167 165,100.5C 164.333,103.167 163.667,103.167 163,100.5C 162.333,103.167 161.667,103.167 161,100.5C 160.333,103.167 159.667,103.167 159,100.5C 158.333,103.167 157.667,103.167 157,100.5C 156.333,103.167 155.667,103.167 155,100.5C 154.333,103.167 153.667,103.167 153,100.5C 152.333,103.167 151.667,103.167 151,100.5C 150.333,103.167 149.667,103.167 149,100.5C 148.333,103.167 147.667,103.167 147,100.5C 146.333,103.167 145.667,103.167 145,100.5C 144.333,103.167 143.667,103.167 143,100.5C 142.333,103.167 141.667,103.167 141,100.5C 140.333,103.167 139.667,103.167 139,100.5C 138.333,103.167 137.667,103.167 137,100.5C 136.333,103.167 135.667,103.167 135,100.5C 134.333,103.167 133.667,103.167 133,100.5C 132.333,103.167 131.667,103.167 131,100.5C 130.333,103.167 129.667,103.167 129,100.5C 124.707,100.813 120.374,100.813 116,100.5C 115.333,103.167 114.667,103.167 114,100.5C 113.187,102.436 112.687,104.436 112.5,106.5C 113.873,106.657 115.207,106.49 116.5,106C 117.5,102.667 118.5,102.667 119.5,106C 189.677,106.491 259.677,106.658 329.5,106.5C 331.413,105.627 333.247,104.627 335,103.5C 337.173,105.901 339.506,105.901 342,103.5C 342.667,104.167 342.667,104.833 342,105.5C 339.266,106.362 339.099,107.195 341.5,108C 338.122,111.703 334.455,114.87 330.5,117.5C 325.005,119.82 320.172,123.154 316,127.5C 315.667,127.167 315.333,126.833 315,126.5C 312.828,127.509 311.662,129.176 311.5,131.5C 307.017,131.995 303.35,133.995 300.5,137.5C 297.105,138.871 293.771,140.204 290.5,141.5C 305.202,130.809 320.202,120.476 335.5,110.5C 336.376,110.631 337.043,110.298 337.5,109.5C 262.334,108.168 187.334,108.168 112.5,109.5C 112.5,121.167 112.5,132.833 112.5,144.5C 125.932,143.84 136.599,148.84 144.5,159.5C 145.857,157.814 147.19,156.148 148.5,154.5C 159.363,144.155 172.363,139.655 187.5,141C 200.443,143.62 209.776,150.787 215.5,162.5C 216.229,167.13 216.563,171.797 216.5,176.5C 225.349,176.826 234.016,176.493 242.5,175.5C 246.482,172.848 250.149,169.848 253.5,166.5C 264.006,159.747 274.34,152.747 284.5,145.5C 285.767,144.913 286.767,144.913 287.5,145.5C 285.184,146.496 283.517,148.163 282.5,150.5C 278.805,151.071 275.805,153.237 273.5,157C 273.833,157.333 274.167,157.667 274.5,158C 273.451,158.492 272.451,158.326 271.5,157.5C 264.932,160.504 260.099,165.171 257,171.5C 256.333,170.833 255.667,170.167 255,169.5C 251.186,170.455 249.019,172.788 248.5,176.5C 250.905,175.232 252.905,175.232 254.5,176.5C 252.178,178.657 250.011,180.99 248,183.5C 247.193,179.551 246.693,179.551 246.5,183.5C 245.5,183.5 244.5,183.5 243.5,183.5C 243.5,182.5 243.5,181.5 243.5,180.5C 237.646,180.477 231.813,180.143 226,179.5C 224.183,182.144 221.683,183.81 218.5,184.5C 216.328,184.324 213.995,184.157 211.5,184C 209.939,183.682 208.772,182.849 208,181.5C 207.667,181.833 207.333,182.167 207,182.5C 207.583,177.526 208.416,172.526 209.5,167.5C 210.541,165.009 211.374,165.009 212,167.5C 212.49,166.207 212.657,164.873 212.5,163.5C 210.738,163.357 209.071,163.691 207.5,164.5C 205.816,162.87 205.149,161.203 205.5,159.5C 204.614,160.325 204.281,161.325 204.5,162.5C 203.069,160.563 201.402,158.73 199.5,157C 176.464,145.925 159.131,151.758 147.5,174.5C 144.629,177.113 141.795,177.113 139,174.5C 137.167,163.333 130.667,156.833 119.5,155C 97.7666,152.963 85.2666,162.796 82,184.5C 81.1667,185.333 80.3333,186.167 79.5,187C 72.6141,190.274 65.9474,193.774 59.5,197.5C 58.8333,197.5 58.1667,197.5 57.5,197.5C 56.7611,197.631 56.0944,197.464 55.5,197C 56.1981,194.546 57.1981,192.213 58.5,190C 64.6014,187.21 70.2681,183.877 75.5,180C 74.8333,179.667 74.1667,179.333 73.5,179C 77.2812,178.633 77.9478,177.3 75.5,175C 76.0712,173.795 76.7379,172.628 77.5,171.5C 78.9621,172.471 80.2954,172.138 81.5,170.5C 82.3311,168.527 82.4978,166.527 82,164.5C 83.3946,165.815 84.3946,165.481 85,163.5C 86.0495,164.517 87.2161,164.684 88.5,164C 89.8333,163 89.8333,162 88.5,161C 90.0192,159.782 91.1859,158.282 92,156.5C 96.2211,157.296 99.8877,155.963 103,152.5C 105.685,152.827 108.518,152.827 111.5,152.5C 111.851,150.131 112.018,147.797 112,145.5C 110.12,146.93 108.62,146.596 107.5,144.5C 108.489,143.532 109.156,142.365 109.5,141C 109.038,131.029 108.205,121.195 107,111.5C 105.691,121.674 105.024,132.008 105,142.5C 104.085,143.328 103.419,144.328 103,145.5C 100.212,143.084 99.7118,140.251 101.5,137C 100.74,128.523 100.24,120.023 100,111.5C 99.586,111.043 99.086,110.709 98.5,110.5C 97.755,121.963 97.4217,133.297 97.5,144.5C 98.5,144.5 99.5,144.5 100.5,144.5C 100.445,147.209 99.7784,149.209 98.5,150.5C 95.7615,151.035 93.9282,150.035 93,147.5C 92.5001,129.836 92.3334,112.17 92.5,94.5C 92.7313,91.9368 94.0646,90.2702 96.5,89.5 Z"/></g>
<g><path style="opacity:1" fill="#36543c" d="M 112.5,109.5 C 187.334,108.168 262.334,108.168 337.5,109.5C 337.043,110.298 336.376,110.631 335.5,110.5C 261.335,109.501 187.002,109.167 112.5,109.5 Z"/></g>
<g><path style="opacity:0.445" fill="#454005" d="M 389.5,99.5 C 384.837,104.996 379.67,109.996 374,114.5C 373.555,120.172 373.055,125.838 372.5,131.5C 373.494,190.159 373.494,248.826 372.5,307.5C 371.501,245.002 371.168,182.336 371.5,119.5C 371.091,115.501 371.925,111.834 374,108.5C 375.458,107.253 376.958,107.253 378.5,108.5C 379.298,106.922 379.798,105.256 380,103.5C 380.414,103.957 380.914,104.291 381.5,104.5C 382.645,103.224 382.645,101.891 381.5,100.5C 382.506,96.5189 383.506,96.5189 384.5,100.5C 385.965,98.5764 387.632,98.2431 389.5,99.5 Z"/></g>
<g><path style="opacity:0.004" fill="#feff00" d="M 44.5,167.5 C 45.8333,168.167 45.8333,168.167 44.5,167.5 Z"/></g>
<g><path style="opacity:1" fill="#a27b1d" d="M 335.5,239.5 C 340.5,239.5 345.5,239.5 350.5,239.5C 350.667,211.498 350.5,183.498 350,155.5C 345.271,160.397 340.438,165.064 335.5,169.5C 333.099,171.177 330.599,171.844 328,171.5C 326.009,173.473 324.509,175.807 323.5,178.5C 322.264,179.246 320.93,179.579 319.5,179.5C 320.34,176.176 320.84,172.843 321,169.5C 320.683,171.301 320.016,171.634 319,170.5C 316.778,173.361 313.945,175.361 310.5,176.5C 309.756,177.991 309.09,179.491 308.5,181C 305.715,181.658 303.049,182.491 300.5,183.5C 316.768,167.576 333.101,151.909 349.5,136.5C 349.56,135.957 349.893,135.624 350.5,135.5C 351.5,170.827 351.833,206.16 351.5,241.5C 345.991,241.125 340.658,240.458 335.5,239.5 Z"/></g>
<g><path style="opacity:1" fill="#cfc055" d="M 260.5,191.5 C 262.046,189.118 262.713,186.451 262.5,183.5C 260.447,183.402 258.78,184.069 257.5,185.5C 255.178,187.664 252.511,189.331 249.5,190.5C 250.09,189.234 250.59,187.901 251,186.5C 251.718,187.451 252.551,187.617 253.5,187C 269.66,174.284 286.327,162.617 303.5,152C 288.997,165.004 274.663,178.171 260.5,191.5 Z"/></g>
<g><path style="opacity:0.004" fill="#feff00" d="M 23.5,175.5 C 24.8333,176.167 24.8333,176.167 23.5,175.5 Z"/></g>
<g><path style="opacity:1" fill="#455e4a" d="M 215.5,162.5 C 216.268,163.263 216.768,164.263 217,165.5C 217.498,168.817 217.665,172.15 217.5,175.5C 225.833,175.5 234.167,175.5 242.5,175.5C 234.016,176.493 225.349,176.826 216.5,176.5C 216.563,171.797 216.229,167.13 215.5,162.5 Z"/></g>
<g><path style="opacity:1" fill="#d8ab1f" d="M 335.5,239.5 C 327.677,238.344 319.677,238.177 311.5,239C 307.233,239.189 303.233,240.023 299.5,241.5C 256.827,250.009 223.827,272.676 200.5,309.5C 198.322,311.858 196.655,314.525 195.5,317.5C 177.172,350.717 172.339,386.05 181,423.5C 183.389,430.611 185.889,437.777 188.5,445C 188.43,445.765 188.097,446.265 187.5,446.5C 182.558,444.696 177.891,442.362 173.5,439.5C 172.728,436.761 171.061,434.761 168.5,433.5C 167.185,428.394 165.351,423.394 163,418.5C 160.119,403.263 159.785,387.93 162,372.5C 168.691,348.689 179.358,327.022 194,307.5C 199.165,303.541 203.165,298.541 206,292.5C 216.675,281.992 227.175,271.325 237.5,260.5C 238.5,260.167 239.167,259.5 239.5,258.5C 271.682,229.26 303.682,199.593 335.5,169.5C 340.438,165.064 345.271,160.397 350,155.5C 350.5,183.498 350.667,211.498 350.5,239.5C 345.5,239.5 340.5,239.5 335.5,239.5 Z"/></g>
<g><path style="opacity:1" fill="#a97a18" d="M 335.5,169.5 C 303.682,199.593 271.682,229.26 239.5,258.5C 235.896,257.216 232.563,256.049 229.5,255C 230.817,253.341 232.483,252.174 234.5,251.5C 235.223,248.93 236.39,246.597 238,244.5C 241.635,241.764 244.468,238.431 246.5,234.5C 263.843,216.824 281.843,199.824 300.5,183.5C 303.049,182.491 305.715,181.658 308.5,181C 309.09,179.491 309.756,177.991 310.5,176.5C 313.945,175.361 316.778,173.361 319,170.5C 320.016,171.634 320.683,171.301 321,169.5C 320.84,172.843 320.34,176.176 319.5,179.5C 320.93,179.579 322.264,179.246 323.5,178.5C 324.509,175.807 326.009,173.473 328,171.5C 330.599,171.844 333.099,171.177 335.5,169.5 Z"/></g>
<g><path style="opacity:1" fill="#909378" d="M 57.5,197.5 C 58.1667,197.5 58.8333,197.5 59.5,197.5C 110.331,198.499 161.331,198.832 212.5,198.5C 212.5,198.833 212.5,199.167 212.5,199.5C 160.489,200.162 108.823,199.496 57.5,197.5 Z"/></g>
<g><path style="opacity:0.004" fill="#feff00" d="M 479.5,208.5 C 480.833,209.167 480.833,209.167 479.5,208.5 Z"/></g>
<g><path style="opacity:1" fill="#e0cf4d" d="M 260.5,191.5 C 242.833,208.167 225.167,224.833 207.5,241.5C 207.167,241.5 206.833,241.5 206.5,241.5C 205.714,235.129 207.048,229.296 210.5,224C 210.43,223.235 210.097,222.735 209.5,222.5C 221.103,211.047 233.769,201.047 247.5,192.5C 246.524,193.815 245.524,195.148 244.5,196.5C 245.559,197.696 246.893,198.363 248.5,198.5C 254.276,195.892 258.609,191.725 261.5,186C 260.207,185.51 258.873,185.343 257.5,185.5C 258.78,184.069 260.447,183.402 262.5,183.5C 262.713,186.451 262.046,189.118 260.5,191.5 Z"/></g>
<g><path style="opacity:0.004" fill="#feff00" d="M 20.5,220.5 C 21.8333,221.167 21.8333,221.167 20.5,220.5 Z"/></g>
<g><path style="opacity:1" fill="#1f2506" d="M 92.5,94.5 C 92.3334,112.17 92.5001,129.836 93,147.5C 93.9282,150.035 95.7615,151.035 98.5,150.5C 99.7784,149.209 100.445,147.209 100.5,144.5C 99.5,144.5 98.5,144.5 97.5,144.5C 97.4217,133.297 97.755,121.963 98.5,110.5C 99.086,110.709 99.586,111.043 100,111.5C 100.24,120.023 100.74,128.523 101.5,137C 99.7118,140.251 100.212,143.084 103,145.5C 103.419,144.328 104.085,143.328 105,142.5C 105.024,132.008 105.691,121.674 107,111.5C 108.205,121.195 109.038,131.029 109.5,141C 109.156,142.365 108.489,143.532 107.5,144.5C 108.62,146.596 110.12,146.93 112,145.5C 112.018,147.797 111.851,150.131 111.5,152.5C 108.518,152.827 105.685,152.827 103,152.5C 99.8877,155.963 96.2211,157.296 92,156.5C 91.1859,158.282 90.0192,159.782 88.5,161C 89.8333,162 89.8333,163 88.5,164C 87.2161,164.684 86.0495,164.517 85,163.5C 84.3946,165.481 83.3946,165.815 82,164.5C 82.4978,166.527 82.3311,168.527 81.5,170.5C 80.2954,172.138 78.9621,172.471 77.5,171.5C 76.7379,172.628 76.0712,173.795 75.5,175C 77.9478,177.3 77.2812,178.633 73.5,179C 74.1667,179.333 74.8333,179.667 75.5,180C 70.2681,183.877 64.6014,187.21 58.5,190C 57.1981,192.213 56.1981,194.546 55.5,197C 56.0944,197.464 56.7611,197.631 57.5,197.5C 108.823,199.496 160.489,200.162 212.5,199.5C 212.719,200.675 212.386,201.675 211.5,202.5C 208.982,202.477 206.316,202.144 203.5,201.5C 203.89,204.466 203.223,207.132 201.5,209.5C 201.833,210.167 202.167,210.833 202.5,211.5C 201.167,212.833 199.833,214.167 198.5,215.5C 199.716,216.096 201.049,216.263 202.5,216C 201.375,218.139 200.042,219.306 198.5,219.5C 200.851,221.759 200.185,223.259 196.5,224C 197.167,224.333 197.833,224.667 198.5,225C 196.744,225.202 195.078,225.702 193.5,226.5C 193.977,227.478 194.643,228.311 195.5,229C 194.663,230.011 194.33,231.178 194.5,232.5C 193.5,232.5 192.5,232.5 191.5,232.5C 191.43,226.628 188.763,225.128 183.5,228C 183.833,228.333 184.167,228.667 184.5,229C 183.167,230 181.833,231 180.5,232C 182.481,232.605 182.815,233.605 181.5,235C 182.981,235.98 184.315,237.147 185.5,238.5C 184.092,239.243 182.759,240.077 181.5,241C 181.957,241.414 182.291,241.914 182.5,242.5C 180.433,243.134 178.6,244.134 177,245.5C 175.806,243.377 175.14,241.043 175,238.5C 173.333,241.167 171.667,243.833 170,246.5C 168.605,245.185 167.605,245.519 167,247.5C 166,247.167 165,246.833 164,246.5C 159.783,248.861 156.283,252.028 153.5,256C 151.064,257.101 148.897,258.601 147,260.5C 145.117,263.298 143.617,266.964 142.5,271.5C 141.667,270.5 140.833,269.5 140,268.5C 139.333,270.5 138.667,272.5 138,274.5C 131.917,279.386 126.75,285.053 122.5,291.5C 121.675,292.386 120.675,292.719 119.5,292.5C 120.363,293.94 120.363,295.274 119.5,296.5C 121.104,300.259 123.104,300.425 125.5,297C 124.85,295.391 125.35,293.891 127,292.5C 127.5,293.667 128.333,294.5 129.5,295C 128.148,298.22 127.148,301.387 126.5,304.5C 127.855,305.675 127.688,306.675 126,307.5C 125.581,306.328 124.915,305.328 124,304.5C 121.45,308.444 119.95,312.778 119.5,317.5C 120.24,320.8 119.407,323.8 117,326.5C 116.503,329.146 116.336,331.813 116.5,334.5C 116.509,339.669 114.176,343.169 109.5,345C 104.232,346.068 99.2317,345.401 94.5,343C 93.7894,341.745 92.956,340.579 92,339.5C 91.6644,296.411 91.1644,253.411 90.5,210.5C 73.1966,210.443 55.8633,210.276 38.5,210C 31.3429,210.198 28.8429,207.031 31,200.5C 44.2603,192.785 57.7603,185.452 71.5,178.5C 74.4229,166.143 80.7562,155.977 90.5,148C 90.5599,130.156 91.2266,112.322 92.5,94.5 Z"/></g>
<g><path style="opacity:1" fill="#86b7b6" d="M 179.5,225.5 C 158.694,244.301 139.694,264.634 122.5,286.5C 120.032,287.52 118.365,289.354 117.5,292C 116.551,292.617 115.718,292.451 115,291.5C 114.5,264.835 114.333,238.169 114.5,211.5C 140.175,211.167 165.842,211.5 191.5,212.5C 189.446,214.459 187.113,215.959 184.5,217C 184.957,217.414 185.291,217.914 185.5,218.5C 183.08,220.578 181.08,222.912 179.5,225.5 Z"/></g>
<g><path style="opacity:1" fill="#8eb4a4" d="M 112.5,209.5 C 141.186,208.842 169.52,209.508 197.5,211.5C 191.805,216.525 185.805,221.191 179.5,225.5C 181.08,222.912 183.08,220.578 185.5,218.5C 185.291,217.914 184.957,217.414 184.5,217C 187.113,215.959 189.446,214.459 191.5,212.5C 165.842,211.5 140.175,211.167 114.5,211.5C 114.333,238.169 114.5,264.835 115,291.5C 115.718,292.451 116.551,292.617 117.5,292C 118.365,289.354 120.032,287.52 122.5,286.5C 121.5,288.5 120.5,290.5 119.5,292.5C 117.108,295.598 114.942,298.931 113,302.5C 112.5,271.502 112.333,240.502 112.5,209.5 Z"/></g>
<g><path style="opacity:1" fill="#2e462e" d="M 112.5,209.5 C 141.336,208.17 170.336,208.17 199.5,209.5C 199.145,210.522 198.478,211.189 197.5,211.5C 169.52,209.508 141.186,208.842 112.5,209.5 Z"/></g>
<g><path style="opacity:0.004" fill="#feff00" d="M 389.5,225.5 C 390.833,226.167 390.833,226.167 389.5,225.5 Z"/></g>
<g><path style="opacity:0.004" fill="#feff00" d="M 470.5,231.5 C 471.833,232.167 471.833,232.167 470.5,231.5 Z"/></g>
<g><path style="opacity:0.004" fill="#feff00" d="M 14.5,239.5 C 15.8333,240.167 15.8333,240.167 14.5,239.5 Z"/></g>
<g><path style="opacity:1" fill="#1f2505" d="M 371.5,119.5 C 371.168,182.336 371.501,245.002 372.5,307.5C 373.526,326.545 372.692,345.545 370,364.5C 368.631,370.764 366.798,376.764 364.5,382.5C 364.851,380.131 365.018,377.797 365,375.5C 364.333,376.833 363.333,377.833 362,378.5C 360.832,374.494 359.665,370.494 358.5,366.5C 358.182,369.779 357.849,373.279 357.5,377C 357.524,380.091 358.024,382.924 359,385.5C 358.311,384.643 357.478,383.977 356.5,383.5C 353.833,384.833 353.167,384.167 354.5,381.5C 353.893,377.511 353.227,373.511 352.5,369.5C 352.045,374.236 350.545,378.57 348,382.5C 346.057,384.715 344.391,384.715 343,382.5C 341.795,386.132 340.628,389.798 339.5,393.5C 337.708,393.634 336.042,393.301 334.5,392.5C 334.5,391.5 334.5,390.5 334.5,389.5C 336.167,389.5 337.833,389.5 339.5,389.5C 340.31,386.617 340.31,383.783 339.5,381C 340.267,377.997 341.767,375.497 344,373.5C 344.658,371.2 345.158,368.867 345.5,366.5C 344.905,361.547 344.905,356.547 345.5,351.5C 346.366,335.517 346.7,319.517 346.5,303.5C 343.575,303.54 340.909,302.707 338.5,301C 334.341,297.753 330.008,294.753 325.5,292C 316.956,292.173 308.456,293.007 300,294.5C 281.633,293.431 276.966,284.765 286,268.5C 288.792,265.661 290.625,262.661 291.5,259.5C 277.091,262.539 264.091,268.539 252.5,277.5C 258.595,281.258 263.261,286.258 266.5,292.5C 265.637,291.537 264.97,291.537 264.5,292.5C 265.326,293.451 265.492,294.451 265,295.5C 262.8,294.452 262.3,292.952 263.5,291C 262.551,290.383 261.718,290.549 261,291.5C 260.355,290.354 259.522,289.354 258.5,288.5C 259.326,287.549 259.492,286.549 259,285.5C 255.687,283.021 252.52,280.355 249.5,277.5C 249.709,276.914 250.043,276.414 250.5,276C 247.494,273.659 244.494,271.325 241.5,269C 247.027,264.735 253.027,261.235 259.5,258.5C 260.442,258.608 261.275,258.941 262,259.5C 262.536,257.131 263.703,255.131 265.5,253.5C 266.086,253.709 266.586,254.043 267,254.5C 269.434,253.368 271.934,252.368 274.5,251.5C 276.223,252.552 277.89,252.552 279.5,251.5C 282.283,252.274 284.283,253.607 285.5,255.5C 287.392,254.527 289.392,253.86 291.5,253.5C 294.769,254.784 297.936,254.451 301,252.5C 304.744,253.626 308.577,253.793 312.5,253C 307.405,251.802 302.405,250.302 297.5,248.5C 296.15,249.95 294.484,250.617 292.5,250.5C 292.48,248.857 293.147,247.524 294.5,246.5C 298.776,246.171 302.609,244.838 306,242.5C 308.009,243.482 308.509,244.815 307.5,246.5C 310.304,247.305 313.138,247.972 316,248.5C 318.97,247.978 319.804,246.478 318.5,244C 326.167,243.333 333.833,243.333 341.5,244C 341.737,246.288 341.737,248.788 341.5,251.5C 343.937,251.244 346.271,250.577 348.5,249.5C 349.167,250.833 349.833,252.167 350.5,253.5C 351.308,253.192 351.975,252.692 352.5,252C 351.89,250.053 351.057,248.219 350,246.5C 349.577,247.956 348.744,248.456 347.5,248C 348.191,246.933 348.691,245.766 349,244.5C 351.939,246.813 355.105,247.146 358.5,245.5C 358.338,243.473 358.505,241.473 359,239.5C 359.219,240.938 359.719,242.271 360.5,243.5C 361.666,220.841 361.833,198.174 361,175.5C 359.886,173.03 359.386,170.364 359.5,167.5C 360.971,160.007 361.804,152.34 362,144.5C 363.011,143.663 364.178,143.33 365.5,143.5C 365.696,138.322 365.863,133.322 366,128.5C 367.167,130.333 368.333,132.167 369.5,134C 369.167,134.333 368.833,134.667 368.5,135C 369.282,137.74 369.782,140.574 370,143.5C 369.505,135.442 370.005,127.442 371.5,119.5 Z"/></g>
<g><path style="opacity:1" fill="#987d1f" d="M 335.5,239.5 C 323.441,239.26 311.441,239.927 299.5,241.5C 303.233,240.023 307.233,239.189 311.5,239C 319.677,238.177 327.677,238.344 335.5,239.5 Z"/></g>
<g><path style="opacity:0.278" fill="#806905" d="M 206.5,241.5 C 206.833,241.5 207.167,241.5 207.5,241.5C 202.776,247.227 197.442,252.227 191.5,256.5C 196.167,251.167 201.167,246.167 206.5,241.5 Z"/></g>
<g><path style="opacity:1" fill="#748046" d="M 314.5,254.5 C 325.194,254.291 335.86,254.625 346.5,255.5C 346.5,267.833 346.5,280.167 346.5,292.5C 344.692,292.509 343.025,292.009 341.5,291C 337.081,287.575 332.415,284.575 327.5,282C 315.527,282.557 303.527,283.057 291.5,283.5C 291.968,279.556 293.301,275.889 295.5,272.5C 301.249,265.747 307.583,259.747 314.5,254.5 Z"/></g>
<g><path style="opacity:0.004" fill="#feff00" d="M 467.5,256.5 C 468.833,257.167 468.833,257.167 467.5,256.5 Z"/></g>
<g><path style="opacity:0.004" fill="#feff00" d="M 467.5,264.5 C 468.833,265.167 468.833,265.167 467.5,264.5 Z"/></g>
<g><path style="opacity:1" fill="#aa7a17" d="M 237.5,260.5 C 227.175,271.325 216.675,281.992 206,292.5C 203.165,298.541 199.165,303.541 194,307.5C 179.358,327.022 168.691,348.689 162,372.5C 159.785,387.93 160.119,403.263 163,418.5C 165.351,423.394 167.185,428.394 168.5,433.5C 167.357,433.092 166.357,432.425 165.5,431.5C 164.439,427.051 162.606,423.051 160,419.5C 158.853,420.458 157.853,420.125 157,418.5C 155.384,414.653 154.384,410.653 154,406.5C 152.121,404.473 150.954,402.14 150.5,399.5C 151.5,399.5 152.5,399.5 153.5,399.5C 153.797,395.276 153.297,390.943 152,386.5C 150.873,389.377 150.206,392.377 150,395.5C 148.962,391.716 148.128,387.883 147.5,384C 147.464,381.37 147.964,378.87 149,376.5C 149.308,377.308 149.808,377.975 150.5,378.5C 151.654,373.846 151.654,369.18 150.5,364.5C 151.837,358.152 153.337,351.819 155,345.5C 158.737,343.702 160.737,340.702 161,336.5C 161.807,340.186 161.307,343.686 159.5,347C 162.443,351.312 163.109,350.645 161.5,345C 162.5,344.333 163.5,344.333 164.5,345C 163.949,346.398 163.616,347.732 163.5,349C 166.914,349.232 167.581,348.399 165.5,346.5C 169.919,344.595 170.252,342.428 166.5,340C 172.377,336.265 176.044,330.931 177.5,324C 177.441,322.564 177.108,321.231 176.5,320C 174.382,318.858 172.382,318.358 170.5,318.5C 171.248,316.668 172.248,315.001 173.5,313.5C 174.086,313.709 174.586,314.043 175,314.5C 177.806,312.605 180.14,310.272 182,307.5C 182.333,308.167 182.667,308.833 183,309.5C 183.49,308.207 183.657,306.873 183.5,305.5C 186.833,304.833 190.167,304.167 193.5,303.5C 193.807,301.554 193.807,299.887 193.5,298.5C 192.808,299.025 192.308,299.692 192,300.5C 191,297.833 190,297.833 189,300.5C 188.667,300.167 188.333,299.833 188,299.5C 187.125,302.215 185.292,303.548 182.5,303.5C 182.343,302.127 182.51,300.793 183,299.5C 185.978,296.211 188.978,292.878 192,289.5C 195.516,286.493 198.682,283.16 201.5,279.5C 202.85,278.05 204.516,277.383 206.5,277.5C 207.576,272.88 210.41,271.547 215,273.5C 217.629,272.791 220.129,271.791 222.5,270.5C 221.167,269.5 219.833,268.5 218.5,267.5C 217.374,265.494 218.04,264.16 220.5,263.5C 221.223,266.07 222.39,268.403 224,270.5C 225.487,268.015 227.321,265.848 229.5,264C 228.833,263.667 228.167,263.333 227.5,263C 230.824,262.057 234.157,261.224 237.5,260.5 Z"/></g>
<g><path style="opacity:1" fill="#86b7b6" d="M 336.5,381.5 C 330.261,396.736 320.928,409.736 308.5,420.5C 304.766,420.018 301.933,421.351 300,424.5C 299.586,424.043 299.086,423.709 298.5,423.5C 297.064,425.822 295.23,426.489 293,425.5C 290.904,426.715 291.071,427.549 293.5,428C 292.643,428.689 291.977,429.522 291.5,430.5C 290.349,431.731 289.183,431.731 288,430.5C 287.333,421.5 287.333,412.5 288,403.5C 290.015,394.4 292.349,385.4 295,376.5C 295.723,370.161 296.057,363.828 296,357.5C 294.363,353.598 292.53,349.765 290.5,346C 285.89,344.71 281.223,344.376 276.5,345C 275.944,345.383 275.611,345.883 275.5,346.5C 273.801,346.34 272.134,346.506 270.5,347C 265.066,350.051 259.4,352.551 253.5,354.5C 256.491,345.345 260.991,337.012 267,329.5C 268.333,325.5 269.667,321.5 271,317.5C 271.499,312.845 271.666,308.179 271.5,303.5C 272.689,297.887 273.689,292.221 274.5,286.5C 274,285.5 273.5,284.5 273,283.5C 271.837,285.285 271.17,287.285 271,289.5C 269.984,288.366 269.317,288.699 269,290.5C 268.586,290.043 268.086,289.709 267.5,289.5C 266.786,286.973 266.12,284.473 265.5,282C 262.728,281.474 260.062,280.641 257.5,279.5C 258.565,275.459 261.232,273.626 265.5,274C 267.026,272.113 269.026,271.113 271.5,271C 271.043,270.586 270.709,270.086 270.5,269.5C 274.256,267.29 278.256,265.623 282.5,264.5C 283.5,264.833 284.5,265.167 285.5,265.5C 282.865,270.589 280.532,275.756 278.5,281C 280.084,293.149 287.084,298.649 299.5,297.5C 306.678,296.546 313.845,295.546 321,294.5C 322.833,294.833 324.667,295.167 326.5,295.5C 332.178,298.99 338.011,302.323 344,305.5C 345.701,326.496 344.034,347.162 339,367.5C 333.843,371.453 333.009,376.12 336.5,381.5 Z"/></g>
<g><path style="opacity:1" fill="#a47a1e" d="M 246.5,234.5 C 244.468,238.431 241.635,241.764 238,244.5C 236.39,246.597 235.223,248.93 234.5,251.5C 232.483,252.174 230.817,253.341 229.5,255C 232.563,256.049 235.896,257.216 239.5,258.5C 239.167,259.5 238.5,260.167 237.5,260.5C 234.157,261.224 230.824,262.057 227.5,263C 228.167,263.333 228.833,263.667 229.5,264C 227.321,265.848 225.487,268.015 224,270.5C 222.39,268.403 221.223,266.07 220.5,263.5C 218.04,264.16 217.374,265.494 218.5,267.5C 219.833,268.5 221.167,269.5 222.5,270.5C 220.129,271.791 217.629,272.791 215,273.5C 210.41,271.547 207.576,272.88 206.5,277.5C 204.516,277.383 202.85,278.05 201.5,279.5C 198.682,283.16 195.516,286.493 192,289.5C 188.978,292.878 185.978,296.211 183,299.5C 182.51,300.793 182.343,302.127 182.5,303.5C 185.292,303.548 187.125,302.215 188,299.5C 188.333,299.833 188.667,300.167 189,300.5C 190,297.833 191,297.833 192,300.5C 192.308,299.692 192.808,299.025 193.5,298.5C 193.807,299.887 193.807,301.554 193.5,303.5C 190.167,304.167 186.833,304.833 183.5,305.5C 183.657,306.873 183.49,308.207 183,309.5C 182.667,308.833 182.333,308.167 182,307.5C 180.14,310.272 177.806,312.605 175,314.5C 174.586,314.043 174.086,313.709 173.5,313.5C 172.248,315.001 171.248,316.668 170.5,318.5C 172.382,318.358 174.382,318.858 176.5,320C 177.108,321.231 177.441,322.564 177.5,324C 176.044,330.931 172.377,336.265 166.5,340C 170.252,342.428 169.919,344.595 165.5,346.5C 167.581,348.399 166.914,349.232 163.5,349C 163.616,347.732 163.949,346.398 164.5,345C 163.5,344.333 162.5,344.333 161.5,345C 163.109,350.645 162.443,351.312 159.5,347C 161.307,343.686 161.807,340.186 161,336.5C 160.737,340.702 158.737,343.702 155,345.5C 153.337,351.819 151.837,358.152 150.5,364.5C 151.654,369.18 151.654,373.846 150.5,378.5C 149.808,377.975 149.308,377.308 149,376.5C 147.964,378.87 147.464,381.37 147.5,384C 148.128,387.883 148.962,391.716 150,395.5C 150.206,392.377 150.873,389.377 152,386.5C 153.297,390.943 153.797,395.276 153.5,399.5C 152.5,399.5 151.5,399.5 150.5,399.5C 150.954,402.14 152.121,404.473 154,406.5C 154.384,410.653 155.384,414.653 157,418.5C 157.853,420.125 158.853,420.458 160,419.5C 162.606,423.051 164.439,427.051 165.5,431.5C 166.357,432.425 167.357,433.092 168.5,433.5C 171.061,434.761 172.728,436.761 173.5,439.5C 169.289,437.469 165.455,434.803 162,431.5C 147.177,413.885 141.844,393.552 146,370.5C 148.563,361.855 151.063,353.189 153.5,344.5C 161.753,326.975 171.753,310.641 183.5,295.5C 203.201,274.088 224.201,253.755 246.5,234.5 Z"/></g>
<g><path style="opacity:0.004" fill="#feff00" d="M 407.5,303.5 C 408.833,304.167 408.833,304.167 407.5,303.5 Z"/></g>
<g><path style="opacity:0.875" fill="#181500" d="M 92.5,237.5 C 93.2891,237.783 93.9558,238.283 94.5,239C 93.6705,271.762 93.1705,304.595 93,337.5C 92.5,304.168 92.3333,270.835 92.5,237.5 Z"/></g>
<g><path style="opacity:0.004" fill="#feff00" d="M 434.5,315.5 C 435.833,316.167 435.833,316.167 434.5,315.5 Z"/></g>
<g><path style="opacity:0.004" fill="#feff00" d="M 23.5,323.5 C 24.8333,324.167 24.8333,324.167 23.5,323.5 Z"/></g>
<g><path style="opacity:0.004" fill="#feff00" d="M 131.5,335.5 C 132.833,336.167 132.833,336.167 131.5,335.5 Z"/></g>
<g><path style="opacity:1" fill="#8cb4a9" d="M 345.5,351.5 C 344.018,361.874 341.018,371.874 336.5,381.5C 333.009,376.12 333.843,371.453 339,367.5C 344.034,347.162 345.701,326.496 344,305.5C 338.011,302.323 332.178,298.99 326.5,295.5C 324.667,295.167 322.833,294.833 321,294.5C 313.845,295.546 306.678,296.546 299.5,297.5C 287.084,298.649 280.084,293.149 278.5,281C 280.532,275.756 282.865,270.589 285.5,265.5C 284.5,265.167 283.5,264.833 282.5,264.5C 278.256,265.623 274.256,267.29 270.5,269.5C 270.709,270.086 271.043,270.586 271.5,271C 269.026,271.113 267.026,272.113 265.5,274C 261.232,273.626 258.565,275.459 257.5,279.5C 260.062,280.641 262.728,281.474 265.5,282C 266.12,284.473 266.786,286.973 267.5,289.5C 268.086,289.709 268.586,290.043 269,290.5C 269.317,288.699 269.984,288.366 271,289.5C 271.17,287.285 271.837,285.285 273,283.5C 273.5,284.5 274,285.5 274.5,286.5C 273.689,292.221 272.689,297.887 271.5,303.5C 270.833,303.5 270.5,303.167 270.5,302.5C 270.128,298.703 268.794,295.37 266.5,292.5C 263.261,286.258 258.595,281.258 252.5,277.5C 264.091,268.539 277.091,262.539 291.5,259.5C 290.625,262.661 288.792,265.661 286,268.5C 276.966,284.765 281.633,293.431 300,294.5C 308.456,293.007 316.956,292.173 325.5,292C 330.008,294.753 334.341,297.753 338.5,301C 340.909,302.707 343.575,303.54 346.5,303.5C 346.7,319.517 346.366,335.517 345.5,351.5 Z"/></g>
<g><path style="opacity:0.004" fill="#feff00" d="M 50.5,356.5 C 51.8333,357.167 51.8333,357.167 50.5,356.5 Z"/></g>
<g><path style="opacity:1" fill="#1e2507" d="M 251.5,289.5 C 248.863,287.509 246.196,285.509 243.5,283.5C 227.63,295.961 215.63,311.294 207.5,329.5C 214.578,331.939 221.912,333.105 229.5,333C 233.521,333.352 236.021,335.518 237,339.5C 237.667,342.167 237.667,344.833 237,347.5C 233,352.833 229,358.167 225,363.5C 224.333,366.833 224.333,370.167 225,373.5C 231.635,381.136 238.635,388.47 246,395.5C 246.837,397.844 248.171,399.844 250,401.5C 252.757,410.029 255.09,418.696 257,427.5C 265.056,435.132 271.056,433.465 275,422.5C 274.536,405.619 277.203,389.285 283,373.5C 283.667,368.167 283.667,362.833 283,357.5C 279.214,356.205 275.38,356.205 271.5,357.5C 265.393,361.763 258.727,364.263 251.5,365C 248.427,364.261 246.26,362.428 245,359.5C 244.349,354.707 244.849,350.041 246.5,345.5C 248.136,344.251 249.303,342.584 250,340.5C 250.424,342.515 251.258,344.349 252.5,346C 250.753,348.98 250.253,352.147 251,355.5C 252.701,348.966 255.534,342.966 259.5,337.5C 259.167,336.833 258.833,336.167 258.5,335.5C 262.67,332.834 265.503,329.168 267,324.5C 267.199,317.005 268.366,309.672 270.5,302.5C 270.5,303.167 270.833,303.5 271.5,303.5C 271.666,308.179 271.499,312.845 271,317.5C 269.667,321.5 268.333,325.5 267,329.5C 260.991,337.012 256.491,345.345 253.5,354.5C 259.4,352.551 265.066,350.051 270.5,347C 272.134,346.506 273.801,346.34 275.5,346.5C 290.391,345.551 296.557,352.551 294,367.5C 288.252,385.737 285.252,404.404 285,423.5C 280.406,440.713 269.906,446.047 253.5,439.5C 251.53,437.353 249.697,435.02 248,432.5C 246.184,424.466 244.184,416.466 242,408.5C 240.414,406.33 239.08,403.996 238,401.5C 231.525,394.936 224.858,388.602 218,382.5C 217.626,380.509 216.793,378.842 215.5,377.5C 214.427,371.885 214.26,366.218 215,360.5C 217.934,354.967 221.6,349.967 226,345.5C 226.483,344.552 226.649,343.552 226.5,342.5C 217.925,343.019 209.925,341.519 202.5,338C 198.197,347.378 195.53,357.212 194.5,367.5C 193.629,370.003 192.963,372.67 192.5,375.5C 191.655,377.771 190.655,380.105 189.5,382.5C 190.53,386.465 190.697,390.465 190,394.5C 189.722,393.584 189.222,392.918 188.5,392.5C 188.716,388.941 188.382,385.441 187.5,382C 187.613,380.72 188.28,379.887 189.5,379.5C 190.197,375.623 190.864,371.79 191.5,368C 190.551,367.383 189.718,367.549 189,368.5C 188.441,372.186 187.774,375.853 187,379.5C 186.371,375.994 185.371,372.66 184,369.5C 183.65,365.467 183.483,361.633 183.5,358C 186.525,347.57 189.691,337.07 193,326.5C 193.667,327.833 194.333,327.833 195,326.5C 195.498,323.518 195.665,320.518 195.5,317.5C 196.655,314.525 198.322,311.858 200.5,309.5C 204.872,307.962 207.705,304.962 209,300.5C 210.555,302.515 212.389,302.848 214.5,301.5C 213.907,299.618 213.24,297.785 212.5,296C 213.935,296.311 215.268,296.145 216.5,295.5C 217.524,296.853 218.857,297.52 220.5,297.5C 220.326,295.139 219.993,292.806 219.5,290.5C 220.822,290.33 221.989,290.663 223,291.5C 223.684,289.521 223.184,287.854 221.5,286.5C 225.642,285.242 229.308,283.242 232.5,280.5C 235.264,283.51 234.597,285.676 230.5,287C 232.807,287.337 234.64,286.504 236,284.5C 236.561,285.022 237.228,285.355 238,285.5C 241.738,280.698 246.238,279.698 251.5,282.5C 251.416,284.875 251.416,287.209 251.5,289.5 Z"/></g>
<g><path style="opacity:1" fill="#758146" d="M 251.5,289.5 C 262.252,298.986 264.419,310.32 258,323.5C 253.361,330.446 249.528,337.779 246.5,345.5C 244.849,350.041 244.349,354.707 245,359.5C 246.26,362.428 248.427,364.261 251.5,365C 258.727,364.263 265.393,361.763 271.5,357.5C 275.38,356.205 279.214,356.205 283,357.5C 283.667,362.833 283.667,368.167 283,373.5C 277.203,389.285 274.536,405.619 275,422.5C 271.056,433.465 265.056,435.132 257,427.5C 255.09,418.696 252.757,410.029 250,401.5C 248.171,399.844 246.837,397.844 246,395.5C 238.635,388.47 231.635,381.136 225,373.5C 224.333,370.167 224.333,366.833 225,363.5C 229,358.167 233,352.833 237,347.5C 237.667,344.833 237.667,342.167 237,339.5C 236.021,335.518 233.521,333.352 229.5,333C 221.912,333.105 214.578,331.939 207.5,329.5C 215.63,311.294 227.63,295.961 243.5,283.5C 246.196,285.509 248.863,287.509 251.5,289.5 Z"/></g>
<g><path style="opacity:1" fill="#222605" d="M 182.5,266.5 C 182.5,267.5 182.5,268.5 182.5,269.5C 183.5,269.5 184.5,269.5 185.5,269.5C 185.649,270.552 185.483,271.552 185,272.5C 183.684,269.972 182.517,269.972 181.5,272.5C 182.833,273.833 184.167,275.167 185.5,276.5C 184.753,276.736 183.92,277.07 183,277.5C 182.667,279.167 182.333,280.833 182,282.5C 181.259,283.641 180.425,283.641 179.5,282.5C 178.402,286.361 177.569,286.361 177,282.5C 176.293,284.081 175.46,285.581 174.5,287C 175.448,287.483 176.448,287.649 177.5,287.5C 177.588,291.589 179.588,294.256 183.5,295.5C 171.753,310.641 161.753,326.975 153.5,344.5C 151.063,353.189 148.563,361.855 146,370.5C 141.844,393.552 147.177,413.885 162,431.5C 165.455,434.803 169.289,437.469 173.5,439.5C 177.891,442.362 182.558,444.696 187.5,446.5C 188.999,448.453 188.665,450.12 186.5,451.5C 187.934,452.23 189.1,453.23 190,454.5C 190.333,453.833 190.667,453.167 191,452.5C 191.499,456.152 191.665,459.818 191.5,463.5C 189.801,463.34 188.134,463.506 186.5,464C 188.991,464.626 188.991,465.459 186.5,466.5C 190.507,469.809 194.674,470.142 199,467.5C 202.34,471.081 206.006,471.415 210,468.5C 211.734,469.249 213.567,469.749 215.5,470C 214.874,470.75 214.374,471.584 214,472.5C 212.687,471.713 211.52,472.046 210.5,473.5C 209.508,473.328 208.842,473.662 208.5,474.5C 184.841,470.118 163.507,460.618 144.5,446C 124.729,418.553 119.229,388.387 128,355.5C 138.57,320.998 156.736,291.332 182.5,266.5 Z"/></g>
<g><path style="opacity:1" fill="#86b7b6" d="M 215.5,377.5 C 216.793,378.842 217.626,380.509 218,382.5C 224.858,388.602 231.525,394.936 238,401.5C 239.08,403.996 240.414,406.33 242,408.5C 244.184,416.466 246.184,424.466 248,432.5C 249.697,435.02 251.53,437.353 253.5,439.5C 253.461,440.583 253.127,441.583 252.5,442.5C 254.5,443.167 256.5,443.833 258.5,444.5C 257.23,445.288 256.23,446.288 255.5,447.5C 254.833,447.5 254.167,447.5 253.5,447.5C 241.829,447.667 230.162,447.5 218.5,447C 217.663,445.989 217.33,444.822 217.5,443.5C 214.756,442.49 212.423,442.824 210.5,444.5C 209.749,443.624 209.249,442.624 209,441.5C 207.989,442.337 206.822,442.67 205.5,442.5C 205.261,438.266 203.595,434.766 200.5,432C 201.448,431.517 202.448,431.351 203.5,431.5C 205.761,428.213 207.094,423.88 207.5,418.5C 207.547,417 206.881,416 205.5,415.5C 204.833,410.5 204.167,405.5 203.5,400.5C 202.914,400.291 202.414,399.957 202,399.5C 201.314,392.98 201.48,386.48 202.5,380C 201.959,376.172 201.459,372.339 201,368.5C 199.223,378.708 198.389,389.042 198.5,399.5C 198.512,404.746 198.845,409.913 199.5,415C 197.715,414.917 196.382,413.917 195.5,412C 195.476,397.553 195.642,383.053 196,368.5C 196.96,365.935 198.46,363.769 200.5,362C 199.603,358.481 200.27,355.147 202.5,352C 202.197,347.954 203.697,344.454 207,341.5C 212.304,343.308 217.804,343.975 223.5,343.5C 223.567,346.766 221.901,348.266 218.5,348C 217.072,349.916 216.072,352.083 215.5,354.5C 214.646,355.522 213.646,356.355 212.5,357C 212.46,363.024 212.626,369.19 213,375.5C 213.417,376.756 214.25,377.423 215.5,377.5 Z"/></g>
<g><path style="opacity:0.004" fill="#feff00" d="M 98.5,370.5 C 99.8333,371.167 99.8333,371.167 98.5,370.5 Z"/></g>
<g><path style="opacity:0.004" fill="#feff00" d="M 101.5,372.5 C 102.833,373.167 102.833,373.167 101.5,372.5 Z"/></g>
<g><path style="opacity:0.004" fill="#feff00" d="M 380.5,372.5 C 381.833,373.167 381.833,373.167 380.5,372.5 Z"/></g>
<g><path style="opacity:0.004" fill="#feff00" d="M 443.5,373.5 C 444.833,374.167 444.833,374.167 443.5,373.5 Z"/></g>
<g><path style="opacity:0.004" fill="#feff00" d="M 47.5,375.5 C 48.8333,376.167 48.8333,376.167 47.5,375.5 Z"/></g>
<g><path style="opacity:0.004" fill="#feff00" d="M 479.5,377.5 C 480.833,378.167 480.833,378.167 479.5,377.5 Z"/></g>
<g><path style="opacity:1" fill="#5d7e67" d="M 194.5,367.5 C 193.804,378.152 193.47,388.819 193.5,399.5C 192.508,391.684 192.174,383.684 192.5,375.5C 192.963,372.67 193.629,370.003 194.5,367.5 Z"/></g>
<g><path style="opacity:0.004" fill="#feff00" d="M 473.5,391.5 C 474.833,392.167 474.833,392.167 473.5,391.5 Z"/></g>
<g><path style="opacity:0.004" fill="#feff00" d="M 464.5,393.5 C 465.833,394.167 465.833,394.167 464.5,393.5 Z"/></g>
<g><path style="opacity:0.004" fill="#feff00" d="M 407.5,406.5 C 408.833,407.167 408.833,407.167 407.5,406.5 Z"/></g>
<g><path style="opacity:0.004" fill="#feff00" d="M 395.5,407.5 C 396.833,408.167 396.833,408.167 395.5,407.5 Z"/></g>
<g><path style="opacity:1" fill="#87b4ac" d="M 215.5,377.5 C 214.25,377.423 213.417,376.756 213,375.5C 212.626,369.19 212.46,363.024 212.5,357C 213.646,356.355 214.646,355.522 215.5,354.5C 216.072,352.083 217.072,349.916 218.5,348C 221.901,348.266 223.567,346.766 223.5,343.5C 217.804,343.975 212.304,343.308 207,341.5C 203.697,344.454 202.197,347.954 202.5,352C 200.27,355.147 199.603,358.481 200.5,362C 198.46,363.769 196.96,365.935 196,368.5C 195.642,383.053 195.476,397.553 195.5,412C 196.382,413.917 197.715,414.917 199.5,415C 198.845,409.913 198.512,404.746 198.5,399.5C 198.389,389.042 199.223,378.708 201,368.5C 201.459,372.339 201.959,376.172 202.5,380C 201.48,386.48 201.314,392.98 202,399.5C 202.414,399.957 202.914,400.291 203.5,400.5C 204.167,405.5 204.833,410.5 205.5,415.5C 206.881,416 207.547,417 207.5,418.5C 207.094,423.88 205.761,428.213 203.5,431.5C 202.448,431.351 201.448,431.517 200.5,432C 203.595,434.766 205.261,438.266 205.5,442.5C 206.822,442.67 207.989,442.337 209,441.5C 209.249,442.624 209.749,443.624 210.5,444.5C 212.423,442.824 214.756,442.49 217.5,443.5C 217.33,444.822 217.663,445.989 218.5,447C 230.162,447.5 241.829,447.667 253.5,447.5C 253.389,448.117 253.056,448.617 252.5,449C 237.077,451.307 221.744,450.974 206.5,448C 198.584,432.757 194.25,416.59 193.5,399.5C 193.47,388.819 193.804,378.152 194.5,367.5C 195.53,357.212 198.197,347.378 202.5,338C 209.925,341.519 217.925,343.019 226.5,342.5C 226.649,343.552 226.483,344.552 226,345.5C 221.6,349.967 217.934,354.967 215,360.5C 214.26,366.218 214.427,371.885 215.5,377.5 Z"/></g>
<g><path style="opacity:1" fill="#212605" d="M 364.5,382.5 C 344.245,434.41 306.579,465.077 251.5,474.5C 256.407,473.075 261.407,471.575 266.5,470C 262.533,470.368 258.533,470.868 254.5,471.5C 254.146,469.459 254.146,467.626 254.5,466C 257.426,465.782 260.26,465.282 263,464.5C 263.333,465.167 263.667,465.833 264,466.5C 265.419,465.54 266.919,464.707 268.5,464C 267.576,463.15 267.576,462.15 268.5,461C 267.491,459.832 266.491,458.665 265.5,457.5C 266.682,455.355 268.182,455.355 270,457.5C 271.016,456.366 271.683,456.699 272,458.5C 273.011,457.663 274.178,457.33 275.5,457.5C 276.038,453.643 275.038,450.309 272.5,447.5C 271.808,448.025 271.308,448.692 271,449.5C 270.282,448.549 269.449,448.383 268.5,449C 266.622,452.606 263.622,454.106 259.5,453.5C 259.328,455.492 259.995,457.158 261.5,458.5C 257.217,459.492 252.884,459.826 248.5,459.5C 248.351,458.448 248.517,457.448 249,456.5C 250.016,457.634 250.683,457.301 251,455.5C 251.333,456.167 251.667,456.833 252,457.5C 254.202,456.598 256.368,455.598 258.5,454.5C 257.726,453.289 256.893,453.289 256,454.5C 255.612,453.572 254.945,452.905 254,452.5C 251.676,453.693 249.51,453.693 247.5,452.5C 252.4,450.053 257.233,450.053 262,452.5C 264.466,449.368 267.966,446.701 272.5,444.5C 277.403,445.835 281.403,444.335 284.5,440C 287.533,438.156 290.866,437.156 294.5,437C 295.861,435.416 296.528,433.582 296.5,431.5C 298.308,431.509 299.975,431.009 301.5,430C 304.399,427.723 307.066,425.223 309.5,422.5C 310.096,423.716 310.263,425.049 310,426.5C 311.19,423.8 313.023,421.633 315.5,420C 314.359,419.259 314.359,418.425 315.5,417.5C 318.479,414.454 321.645,411.787 325,409.5C 326.707,407.091 327.54,404.425 327.5,401.5C 328.5,401.5 329.5,401.5 330.5,401.5C 330.502,397.835 331.835,394.835 334.5,392.5C 336.042,393.301 337.708,393.634 339.5,393.5C 340.628,389.798 341.795,386.132 343,382.5C 344.391,384.715 346.057,384.715 348,382.5C 350.545,378.57 352.045,374.236 352.5,369.5C 353.227,373.511 353.893,377.511 354.5,381.5C 353.167,384.167 353.833,384.833 356.5,383.5C 357.478,383.977 358.311,384.643 359,385.5C 358.024,382.924 357.524,380.091 357.5,377C 357.849,373.279 358.182,369.779 358.5,366.5C 359.665,370.494 360.832,374.494 362,378.5C 363.333,377.833 364.333,376.833 365,375.5C 365.018,377.797 364.851,380.131 364.5,382.5 Z"/></g>
<g><path style="opacity:1" fill="#89b0a3" d="M 308.5,420.5 C 293.482,434.51 275.815,443.51 255.5,447.5C 256.23,446.288 257.23,445.288 258.5,444.5C 256.5,443.833 254.5,443.167 252.5,442.5C 253.127,441.583 253.461,440.583 253.5,439.5C 269.906,446.047 280.406,440.713 285,423.5C 285.252,404.404 288.252,385.737 294,367.5C 296.557,352.551 290.391,345.551 275.5,346.5C 275.611,345.883 275.944,345.383 276.5,345C 281.223,344.376 285.89,344.71 290.5,346C 292.53,349.765 294.363,353.598 296,357.5C 296.057,363.828 295.723,370.161 295,376.5C 292.349,385.4 290.015,394.4 288,403.5C 287.333,412.5 287.333,421.5 288,430.5C 289.183,431.731 290.349,431.731 291.5,430.5C 291.977,429.522 292.643,428.689 293.5,428C 291.071,427.549 290.904,426.715 293,425.5C 295.23,426.489 297.064,425.822 298.5,423.5C 299.086,423.709 299.586,424.043 300,424.5C 301.933,421.351 304.766,420.018 308.5,420.5 Z"/></g>
<g><path style="opacity:1" fill="#19270f" d="M 345.5,351.5 C 344.905,356.547 344.905,361.547 345.5,366.5C 345.158,368.867 344.658,371.2 344,373.5C 341.767,375.497 340.267,377.997 339.5,381C 340.31,383.783 340.31,386.617 339.5,389.5C 337.833,389.5 336.167,389.5 334.5,389.5C 334.5,390.5 334.5,391.5 334.5,392.5C 331.835,394.835 330.502,397.835 330.5,401.5C 329.5,401.5 328.5,401.5 327.5,401.5C 327.54,404.425 326.707,407.091 325,409.5C 321.645,411.787 318.479,414.454 315.5,417.5C 314.359,418.425 314.359,419.259 315.5,420C 313.023,421.633 311.19,423.8 310,426.5C 310.263,425.049 310.096,423.716 309.5,422.5C 307.066,425.223 304.399,427.723 301.5,430C 299.975,431.009 298.308,431.509 296.5,431.5C 296.528,433.582 295.861,435.416 294.5,437C 290.866,437.156 287.533,438.156 284.5,440C 281.403,444.335 277.403,445.835 272.5,444.5C 267.966,446.701 264.466,449.368 262,452.5C 257.233,450.053 252.4,450.053 247.5,452.5C 234.21,452.671 220.877,452.171 207.5,451C 202.589,447.943 200.089,443.443 200,437.5C 198.865,437.273 197.698,436.94 196.5,436.5C 196.987,435.554 197.32,434.554 197.5,433.5C 193.812,424.893 191.979,415.893 192,406.5C 191.333,407.833 190.667,407.833 190,406.5C 189.335,401.844 188.835,397.177 188.5,392.5C 189.222,392.918 189.722,393.584 190,394.5C 190.697,390.465 190.53,386.465 189.5,382.5C 190.655,380.105 191.655,377.771 192.5,375.5C 192.174,383.684 192.508,391.684 193.5,399.5C 194.25,416.59 198.584,432.757 206.5,448C 221.744,450.974 237.077,451.307 252.5,449C 253.056,448.617 253.389,448.117 253.5,447.5C 254.167,447.5 254.833,447.5 255.5,447.5C 275.815,443.51 293.482,434.51 308.5,420.5C 320.928,409.736 330.261,396.736 336.5,381.5C 341.018,371.874 344.018,361.874 345.5,351.5 Z"/></g>
<g><path style="opacity:0.004" fill="#feff00" d="M 419.5,434.5 C 420.833,435.167 420.833,435.167 419.5,434.5 Z"/></g>
<g><path style="opacity:0.004" fill="#feff00" d="M 404.5,440.5 C 405.833,441.167 405.833,441.167 404.5,440.5 Z"/></g>
<g><path style="opacity:1" fill="#202504" d="M 195.5,317.5 C 195.665,320.518 195.498,323.518 195,326.5C 194.333,327.833 193.667,327.833 193,326.5C 189.691,337.07 186.525,347.57 183.5,358C 183.483,361.633 183.65,365.467 184,369.5C 185.371,372.66 186.371,375.994 187,379.5C 187.774,375.853 188.441,372.186 189,368.5C 189.718,367.549 190.551,367.383 191.5,368C 190.864,371.79 190.197,375.623 189.5,379.5C 188.28,379.887 187.613,380.72 187.5,382C 188.382,385.441 188.716,388.941 188.5,392.5C 188.835,397.177 189.335,401.844 190,406.5C 190.667,407.833 191.333,407.833 192,406.5C 191.979,415.893 193.812,424.893 197.5,433.5C 197.32,434.554 196.987,435.554 196.5,436.5C 197.698,436.94 198.865,437.273 200,437.5C 200.089,443.443 202.589,447.943 207.5,451C 220.877,452.171 234.21,452.671 247.5,452.5C 249.51,453.693 251.676,453.693 254,452.5C 254.945,452.905 255.612,453.572 256,454.5C 256.893,453.289 257.726,453.289 258.5,454.5C 256.368,455.598 254.202,456.598 252,457.5C 251.667,456.833 251.333,456.167 251,455.5C 250.683,457.301 250.016,457.634 249,456.5C 248.517,457.448 248.351,458.448 248.5,459.5C 252.884,459.826 257.217,459.492 261.5,458.5C 259.995,457.158 259.328,455.492 259.5,453.5C 263.622,454.106 266.622,452.606 268.5,449C 269.449,448.383 270.282,448.549 271,449.5C 271.308,448.692 271.808,448.025 272.5,447.5C 275.038,450.309 276.038,453.643 275.5,457.5C 274.178,457.33 273.011,457.663 272,458.5C 271.683,456.699 271.016,456.366 270,457.5C 268.182,455.355 266.682,455.355 265.5,457.5C 266.491,458.665 267.491,459.832 268.5,461C 267.576,462.15 267.576,463.15 268.5,464C 266.919,464.707 265.419,465.54 264,466.5C 263.667,465.833 263.333,465.167 263,464.5C 260.26,465.282 257.426,465.782 254.5,466C 254.146,467.626 254.146,469.459 254.5,471.5C 258.533,470.868 262.533,470.368 266.5,470C 261.407,471.575 256.407,473.075 251.5,474.5C 250.833,474.5 250.167,474.5 249.5,474.5C 242.91,474.189 236.41,474.522 230,475.5C 228.333,474.833 226.667,474.167 225,473.5C 220.256,474.064 215.423,474.064 210.5,473.5C 211.52,472.046 212.687,471.713 214,472.5C 214.374,471.584 214.874,470.75 215.5,470C 213.567,469.749 211.734,469.249 210,468.5C 206.006,471.415 202.34,471.081 199,467.5C 194.674,470.142 190.507,469.809 186.5,466.5C 188.991,465.459 188.991,464.626 186.5,464C 188.134,463.506 189.801,463.34 191.5,463.5C 191.665,459.818 191.499,456.152 191,452.5C 190.667,453.167 190.333,453.833 190,454.5C 189.1,453.23 187.934,452.23 186.5,451.5C 188.665,450.12 188.999,448.453 187.5,446.5C 188.097,446.265 188.43,445.765 188.5,445C 185.889,437.777 183.389,430.611 181,423.5C 172.339,386.05 177.172,350.717 195.5,317.5 Z"/></g>
<g><path style="opacity:0.004" fill="#feff00" d="M 479.5,442.5 C 480.833,443.167 480.833,443.167 479.5,442.5 Z"/></g>
<g><path style="opacity:0.004" fill="#feff00" d="M 356.5,443.5 C 357.833,444.167 357.833,444.167 356.5,443.5 Z"/></g>
<g><path style="opacity:0.004" fill="#feff00" d="M 308.5,456.5 C 309.833,457.167 309.833,457.167 308.5,456.5 Z"/></g>
<g><path style="opacity:0.004" fill="#feff00" d="M 353.5,459.5 C 354.833,460.167 354.833,460.167 353.5,459.5 Z"/></g>
<g><path style="opacity:0.004" fill="#feff00" d="M 119.5,461.5 C 120.833,462.167 120.833,462.167 119.5,461.5 Z"/></g>
<g><path style="opacity:0.004" fill="#feff00" d="M 17.5,466.5 C 18.8333,467.167 18.8333,467.167 17.5,466.5 Z"/></g>
<g><path style="opacity:0.004" fill="#feff00" d="M 2.5,467.5 C 3.83333,468.167 3.83333,468.167 2.5,467.5 Z"/></g>
<g><path style="opacity:0.467" fill="#493a03" d="M 208.5,474.5 C 208.842,473.662 209.508,473.328 210.5,473.5C 215.423,474.064 220.256,474.064 225,473.5C 226.667,474.167 228.333,474.833 230,475.5C 236.41,474.522 242.91,474.189 249.5,474.5C 243.858,475.547 238.025,476.213 232,476.5C 224.157,475.863 216.324,475.196 208.5,474.5 Z"/></g>
<g><path style="opacity:0.004" fill="#feff00" d="M 443.5,474.5 C 444.833,475.167 444.833,475.167 443.5,474.5 Z"/></g>
<g><path style="opacity:0.004" fill="#feff00" d="M 59.5,475.5 C 60.8333,476.167 60.8333,476.167 59.5,475.5 Z"/></g>
<g><path style="opacity:0.004" fill="#feff00" d="M 474.5,489.5 C 473.833,488.167 473.833,488.167 474.5,489.5 Z"/></g>
</svg>
